<?xml version="1.0" encoding="utf-8"?>
<!DOCTYPE svg PUBLIC "-//W3C//DTD SVG 1.0//EN" "http://www.w3.org/TR/2001/REC-SVG-20010904/DTD/svg10.dtd">
<svg version="1.0" xmlns="http://www.w3.org/2000/svg" width="1024px" height="1024px" viewBox="0 0 1024 1024" preserveAspectRatio="xMidYMid meet">
 <g fill="#feffff">
  <path d="M1 1023.25 c0 -0.40 -0.20 -0.75 -0.50 -0.75 -0.35 0 -0.50 -170.75 -0.50 -511.25 l0 -511.25 84.75 0 c81.95 0 84.75 0.05 84.75 0.90 0 0.90 -0.90 0.95 -14.35 1.40 -7.95 0.25 -17.15 0.40 -20.50 0.35 -3.55 -0.05 -6.15 0.15 -6.15 0.40 0 0.45 -14.25 0.35 -57.60 -0.30 -12.75 -0.20 -16.90 -0.15 -16.90 0.30 0 0.45 -6.15 0.55 -25.25 0.35 -21.15 -0.20 -25.25 -0.15 -25.25 0.40 0 0.40 -0.15 0.70 -0.35 0.70 -0.25 0 -0.30 3.05 -0.25 6.75 0.15 4.05 0 6.75 -0.30 6.75 -0.50 0 -0.25 966.15 0.25 989.85 l0.30 13.05 3.05 0.20 c1.65 0.10 5.30 0 8.05 -0.15 7.30 -0.45 108.75 -0.55 127.90 -0.15 l16.35 0.35 0 1.40 0 1.45 -78.75 0 c-69.65 0 -78.75 -0.10 -78.75 -0.75z"/>
  <path d="M196.50 1022.55 l0 -1.45 11.80 -0.35 c15.75 -0.50 32.75 -0.50 47.85 -0.05 l12.35 0.40 0 1.45 0 1.45 -36 0 -36 0 0 -1.45z"/>
  <path d="M282 1022.55 l0 -1.40 4.60 -0.35 c5.95 -0.40 116 -0.40 125.80 0.05 l7.60 0.30 0 1.45 0 1.40 -69 0 -69 0 0 -1.45z"/>
  <path d="M431 1022.55 c0 -1.45 0 -1.45 3.90 -1.75 6.15 -0.50 86.15 -0.60 94 -0.10 l7.10 0.40 0 1.45 0 1.45 -52.50 0 -52.50 0 0 -1.45z"/>
  <path d="M563.50 1022.55 l0 -1.40 6.65 -0.35 c5.60 -0.30 29.45 -0.30 75.35 -0.10 5.35 0.05 12.70 -0.05 16.25 -0.20 10.70 -0.35 32.75 0 36.90 0.60 3 0.45 4.30 0.45 5.55 0 1.80 -0.65 91.30 -0.95 181.30 -0.60 27.10 0.10 60.75 0.10 74.75 0.05 14.05 -0.10 30.10 0 35.75 0.20 11.10 0.35 21.50 -0.25 22.80 -1.30 0.45 -0.35 1 -1.25 1.30 -1.90 0.30 -0.80 0.45 -15.55 0.40 -38.05 -0.10 -34.45 -0.10 -916.50 -0.05 -955.85 l0.05 -18.15 1.75 0 1.75 0 0 509.25 0 509.25 -230.25 0 -230.25 0 0 -1.45z"/>
  <path d="M585.15 663.65 c-0.35 -0.15 -0.65 -1 -0.65 -1.95 l0 -1.70 12.15 0 c6.65 0 12.60 0.15 13.25 0.30 0.85 0.25 1.10 0.70 1.10 2 l0 1.70 -12.60 -0.05 c-6.95 -0.05 -12.95 -0.15 -13.25 -0.30z"/>
  <path d="M394 661.75 l0 -1.75 7.75 0 7.75 0 0 1.75 0 1.75 -7.75 0 -7.75 0 0 -1.75z"/>
  <path d="M651.20 656.65 c-0.55 -8 -0.50 -255 0 -277.25 l0.40 -16.40 1.90 0 c1.75 0 1.90 0.15 2.15 1.65 0.15 0.85 0.30 4.85 0.30 8.80 0.05 5.35 0.25 7.60 0.80 8.70 0.95 1.95 1 4.35 0.05 4.35 -0.55 0 -0.60 0.30 -0.30 1.40 0.60 1.80 1.50 11.30 1.65 16.70 0.05 2.40 0.25 4.40 0.50 4.40 0.20 0 0.35 1.70 0.35 3.75 0 2.15 -0.20 3.75 -0.50 3.75 -0.25 0 -0.50 0.90 -0.50 2 0 1.40 0.20 2 0.70 2 0.65 0 0.75 1.50 0.75 9 0 7.15 -0.15 9 -0.65 9 -1.25 0 -1.45 4.80 -0.20 6.30 0.20 0.30 0.55 3.10 0.75 6.15 0.15 3.05 0.50 5.55 0.75 5.55 0.20 0 0.40 0.90 0.40 2 0 1.15 -0.25 2 -0.55 2 -0.45 0 -0.50 1.10 -0.30 3.90 0.15 2.10 0.10 5.65 -0.15 7.85 -0.40 3.10 -0.30 4.60 0.30 7 0.60 2.25 0.70 4.20 0.45 8 -0.15 2.75 -0.40 8.50 -0.50 12.75 -0.15 4.25 -0.35 10.10 -0.55 13 -0.40 6.40 -0.40 5.25 0.30 22 0.30 7.55 0.55 14.70 0.50 15.90 -0.05 1.95 -0.05 10.60 0 28.85 0.05 4.15 0.05 14.05 0 22 0 8 0.10 16.95 0.30 19.90 0.20 3.40 0.10 6.70 -0.25 9 -0.35 2 -0.65 6.95 -0.70 11 -0.10 4.65 -0.35 7.55 -0.70 7.75 -0.30 0.20 -0.70 1.60 -0.90 3.10 -0.20 1.50 -0.55 3 -0.75 3.25 -0.20 0.30 -0.55 1.65 -0.75 3 -0.50 3.55 -1 4.25 -2.95 4.25 l-1.70 0 -0.40 -6.35z"/>
  <path d="M446.80 659.40 c-0.40 -4.10 -0.30 -104.30 0.15 -107.90 l0.30 -2.75 8.50 0 8.50 0 0.15 1.90 c0.15 1.75 0.10 1.85 -1.30 1.85 -3.10 0 -3.75 2.95 -3.65 16.40 0.05 6.60 -0.10 10.60 -0.40 10.60 -0.30 0 -0.40 1.80 -0.25 4.65 0.15 2.50 0.25 7.30 0.25 10.60 0 3.30 0 12.55 0.05 20.60 0 12.85 -0.10 15.15 -1 19.50 -1.05 5 -2.05 11.40 -2.45 15.85 -0.20 1.75 -0.50 2.50 -1.15 2.65 -0.95 0.25 -4 6.30 -4 8.05 0 0.90 -0.30 1.10 -1.70 1.10 l-1.65 0 -0.35 -3.10z"/>
  <path d="M446.80 466.20 c-0.40 -13.25 -0.40 -83.70 0.05 -94.80 l0.30 -8.40 1.85 0 c1.65 0 1.95 0.20 2.20 1.40 1 4.10 1.40 5.10 1.95 5.10 1.75 0 3.35 10.45 3.35 21.85 0 3.20 0.15 4.15 0.70 4.15 0.55 0 0.70 1.50 0.65 8 -0.05 6.20 -0.20 8 -0.70 8 -0.50 0 -0.65 1.10 -0.65 4.05 0 3.55 0.10 4.05 0.95 4.30 1.50 0.40 2.15 4.15 2.20 12.65 0.10 5.80 -0.05 7.65 -0.55 7.95 -0.50 0.30 -0.60 1.05 -0.35 2.70 0.40 2.55 0 4.35 -0.95 4.35 -0.45 0 -0.75 1.10 -0.95 3.40 -0.15 1.85 -0.55 4.55 -0.85 6 -0.50 2.20 -0.75 2.60 -1.75 2.60 -1.55 0 -1.65 0.50 -1.35 6.05 l0.25 4.85 2.80 0.30 c3 0.35 12.75 1.20 14.20 1.25 0.65 0.05 0.85 0.50 0.85 2.05 l0 2 -5.60 0 c-3.10 0 -8.50 0.15 -11.95 0.35 l-6.30 0.30 -0.35 -10.45z"/>
  <path d="M563.90 476.15 l-7.40 -0.20 0 -1.70 c0 -1.20 0.25 -1.75 0.75 -1.75 0.40 0 0.75 -0.20 0.75 -0.50 0 -0.30 2.45 -0.50 6.40 -0.50 6.95 0 8.60 -0.25 8.60 -1.30 0 -0.45 0.60 -0.70 1.75 -0.70 l1.80 0 -0.15 3.40 -0.15 3.35 -2.50 0.05 c-1.35 0 -5.80 -0.05 -9.85 -0.15z"/>
  <path d="M503 474.45 c0 -0.85 0.30 -1.85 0.70 -2.25 0.85 -0.80 5.80 -1 5.80 -0.20 0 0.30 0.55 0.50 1.25 0.50 0.70 0 1.25 -0.20 1.25 -0.50 0 -0.30 2.60 -0.50 6.75 -0.50 4.15 0 6.75 0.20 6.75 0.50 0 0.30 0.35 0.50 0.75 0.50 0.50 0 0.75 0.55 0.75 1.75 l0 1.75 -12 0 -12 0 0 -1.55z"/>
  <path d="M531 474.25 c0 -1.40 0.20 -1.75 0.95 -1.75 0.55 0 1.05 -0.25 1.15 -0.55 0.15 -0.40 1.05 -0.50 3.05 -0.25 l2.85 0.35 0 2 0 1.95 -4 0 -4 0 0 -1.75z"/>
  <path d="M545.50 475.50 c0 -0.25 -0.45 -0.50 -1 -0.50 -0.80 0 -1 -0.35 -1 -1.75 0 -1.65 0.10 -1.75 1.75 -1.75 0.95 0 1.75 0.25 1.75 0.50 0 0.30 0.45 0.50 1 0.50 0.80 0 1 0.35 1 1.75 0 1.65 -0.10 1.75 -1.75 1.75 -0.95 0 -1.75 -0.20 -1.75 -0.50z"/>
  <path d="M204.20 3 c-0.50 -0.50 -7.95 -0.80 -22.55 -0.95 -5.80 -0.05 -6.15 -0.10 -6.15 -1.05 0 -1 0.35 -1 424.25 -1 l424.25 0 0 1.55 0 1.55 -8 -0.35 c-5.80 -0.30 -8 -0.20 -8 0.20 0 0.85 -56.10 0.80 -57.55 -0.05 -0.85 -0.50 -1.15 -0.50 -1.30 -0.05 -0.30 0.80 -12.70 0.90 -13.45 0.15 -0.50 -0.50 -8.65 -0.45 -59.15 0.25 -12.15 0.20 -18.40 0.10 -18.75 -0.25 -0.70 -0.70 -22.80 -0.70 -22.80 0 0 0.80 -43.20 0.65 -44.55 -0.10 -0.85 -0.50 -1.15 -0.50 -1.30 -0.05 -0.30 0.80 -42.90 0.95 -43.40 0.15 -0.40 -0.70 -20.25 -0.70 -20.25 0 0 0.60 -94.10 0.40 -121.45 -0.20 -12.30 -0.30 -16.95 -0.25 -17.75 0.15 -1.15 0.65 -16.95 0.50 -20.40 -0.20 -1.30 -0.25 -1.90 -0.20 -1.90 0.20 0 0.70 -8.40 0.75 -10.25 0.05 -0.80 -0.30 -9 -0.55 -20.05 -0.65 -15.25 -0.10 -18.80 0 -19.15 0.55 -0.30 0.55 -1.20 0.60 -3.60 0.35 -5.70 -0.60 -34.45 -0.85 -34.45 -0.25 0 0.70 -55.80 0.70 -56.25 0 -0.40 -0.65 -5.75 -0.65 -5.75 0 0 0.70 -11.65 0.65 -12.30 0 -0.75 -0.75 -54.85 -0.75 -55.10 0 -0.25 0.70 -34.40 0.70 -34.85 0 -0.40 -0.70 -38.75 -0.70 -38.75 0 0 0.65 -5.85 0.65 -6.25 0 -0.40 -0.65 -4.25 -0.65 -4.25 0 0 0.70 -27.85 0.70 -28.25 0 -0.40 -0.65 -12.75 -0.65 -12.75 0 0 0.70 -17.15 0.65 -17.80 0z"/>
 </g>
 <g fill="#f9f8ef">
  <path d="M0 1022.50 c0 -0.90 0.30 -1.65 0.75 -1.80 0.40 -0.20 0.75 -0.60 0.75 -1 0 -0.40 0.45 -0.70 1 -0.70 0.55 0 1 0.35 1 0.75 0 0.40 0.35 0.75 0.75 0.75 0.40 0 0.75 0.45 0.75 1 0 0.75 -0.35 1 -1.25 1 -0.80 0 -1.25 0.30 -1.25 0.75 0 0.45 -0.45 0.75 -1.25 0.75 -1.05 0 -1.25 -0.25 -1.25 -1.50z"/>
  <path d="M157 1023.25 c0 -0.40 -0.35 -0.75 -0.75 -0.75 -0.40 0 -0.75 -0.30 -0.75 -0.70 0 -1 4.55 -1.20 31.90 -1.30 20.60 -0.10 23.60 0 23.60 0.65 0 0.80 -1.45 1.35 -3.60 1.35 -0.85 0 -1.40 0.30 -1.55 0.90 -0.20 0.80 -0.25 0.80 -0.30 0 -0.05 -0.60 -0.45 -0.90 -1.25 -0.90 -0.75 0 -1.30 0.35 -1.45 0.90 -0.20 0.80 -0.25 0.80 -0.30 0 0 -0.50 -0.25 -0.90 -0.50 -0.90 -0.25 0 -0.60 0.40 -0.70 0.90 -0.20 0.80 -0.25 0.80 -0.30 0 -0.05 -1.15 -3.05 -1.30 -3.05 -0.15 0 0.65 -2.60 0.75 -20.50 0.75 -17.90 0 -20.50 -0.10 -20.50 -0.75z"/>
  <path d="M267 1023.25 c0 -0.40 -0.35 -0.75 -0.75 -0.75 -0.40 0 -0.75 -0.35 -0.75 -0.75 0 -0.55 0.60 -0.75 2.25 -0.75 2.15 0 2.25 0.05 2.25 1.50 0 1.35 -0.15 1.50 -1.50 1.50 -1 0 -1.50 -0.25 -1.50 -0.75z"/>
  <path d="M273.50 1022.60 l0 -1.45 6.10 -0.30 c10 -0.55 12.90 -0.45 12.90 0.40 0 0.40 -0.40 0.80 -0.85 0.85 -0.50 0 -1.10 0.10 -1.40 0.15 -0.25 0.10 -1.70 0.15 -3.10 0.20 -2.15 0.05 -2.65 0.20 -2.70 0.95 0 0.70 -0.10 0.70 -0.45 -0.15 -0.35 -0.85 -0.45 -0.85 -0.45 -0.10 -0.05 0.75 -0.65 0.85 -5.05 0.85 l-5 0 0 -1.40z"/>
  <path d="M418.50 1023.25 c0 -0.60 -0.90 -0.75 -5 -0.80 -2.75 -0.05 -5.20 -0.15 -5.50 -0.20 -0.25 -0.05 -0.85 -0.15 -1.25 -0.20 -0.40 0 -0.75 -0.35 -0.75 -0.75 0 -0.75 11.75 -1.30 29.65 -1.30 10.05 0 10.35 0 10.35 1 0 0.90 -0.35 1 -3.70 1 -5.80 0 -9.80 0.55 -9.80 1.30 0 0.55 -1.45 0.70 -7 0.70 -5.90 0 -7 -0.10 -7 -0.75z"/>
  <path d="M534.50 1023.25 c0 -0.40 -0.35 -0.75 -0.75 -0.75 -0.40 0 -0.75 -0.30 -0.75 -0.65 0 -0.80 9.80 -1.15 47.65 -1.70 l23.85 -0.30 0 1 c0 1.05 -0.20 1.05 -13.10 1.15 -7.25 0.05 -14.50 0.15 -16.15 0.25 -1.65 0.05 -4.65 0.15 -6.60 0.20 -2.90 0.05 -3.65 0.20 -3.65 0.80 0 0.65 -2.05 0.75 -15.25 0.75 -13.20 0 -15.25 -0.10 -15.25 -0.75z"/>
  <path d="M35.70 1022.55 c-0.10 -0.10 -0.20 -0.65 -0.20 -1.15 0 -0.75 0.40 -0.90 2.50 -0.90 2.10 0 2.50 0.15 2.50 0.95 0 0.75 -0.45 1 -2.30 1.15 -1.25 0.10 -2.35 0.05 -2.50 -0.05z"/>
  <path d="M704.50 1021.80 c0 -1.15 0.20 -1.30 1.75 -1.30 1.85 0 2.50 1.15 0.90 1.65 -0.50 0.10 -1.30 0.40 -1.75 0.60 -0.75 0.30 -0.90 0.10 -0.90 -0.95z"/>
  <path d="M11.50 1021.45 c0 -0.90 0.50 -0.95 11.25 -0.95 10.40 0 11.25 0.05 11.25 0.90 0 0.80 -0.90 0.85 -11.25 0.95 -10.75 0.05 -11.25 0 -11.25 -0.90z"/>
  <path d="M45.90 1022.10 c-0.50 -0.10 -0.90 -0.50 -0.90 -0.90 0 -0.50 0.70 -0.70 2.75 -0.70 2.10 0 2.75 0.15 2.75 0.75 0 0.40 -0.30 0.75 -0.60 0.80 -0.35 0 -1.20 0.05 -1.90 0.10 -0.70 0.10 -1.65 0.05 -2.10 -0.05z"/>
  <path d="M51.90 1022.15 c-0.50 -0.10 -0.90 -0.55 -0.90 -0.95 0 -0.50 0.65 -0.70 2.25 -0.70 1.60 0 2.25 0.20 2.25 0.70 0 0.55 -1.65 1.40 -2.50 1.25 -0.15 -0.05 -0.65 -0.15 -1.10 -0.30z"/>
  <path d="M58.40 1022.10 c-0.50 -0.10 -0.90 -0.50 -0.90 -0.90 0 -0.55 0.80 -0.70 3.50 -0.70 2.80 0 3.50 0.15 3.50 0.75 0 0.40 -0.30 0.80 -0.60 0.85 -1.50 0.15 -4.70 0.20 -5.50 0z"/>
  <path d="M134.90 1022.10 c-0.50 -0.10 -0.90 -0.50 -0.90 -0.90 0 -0.60 1.55 -0.70 9.25 -0.70 9 0 9.25 0.05 9.25 1.05 0 1 -0.20 1 -8.35 0.90 -4.65 -0.10 -8.80 -0.20 -9.25 -0.35z"/>
  <path d="M254.40 1022.15 c-0.50 -0.10 -0.90 -0.55 -0.90 -0.95 0 -0.55 0.80 -0.70 3.50 -0.70 3.15 0 3.50 0.10 3.50 1 0 0.90 -0.30 1 -2.60 0.95 -1.45 -0.05 -3.05 -0.15 -3.50 -0.30z"/>
  <path d="M525.40 1022.10 c-0.50 -0.10 -0.90 -0.50 -0.90 -0.90 0 -0.55 0.85 -0.70 3.75 -0.70 3.45 0 3.75 0.10 3.75 1 0 0.95 -0.30 1 -2.85 0.90 -1.60 -0.05 -3.30 -0.20 -3.75 -0.30z"/>
  <path d="M712.40 1022.15 c-1.80 -0.45 -1 -1.65 1.10 -1.65 1.45 0 2 0.20 2 0.75 0 0.40 -0.20 0.75 -0.45 0.75 -0.25 0 -0.75 0.10 -1.15 0.20 -0.35 0.10 -1.05 0.10 -1.50 -0.05z"/>
  <path d="M892.40 1022.10 c-1.70 -0.35 -1 -1.60 0.85 -1.60 1.15 0 1.75 0.25 1.75 0.70 0 0.75 -1.25 1.20 -2.60 0.90z"/>
  <path d="M119.50 1021 c0 -0.90 0.35 -1 4.25 -1 3.90 0 4.25 0.10 4.25 1 0 0.90 -0.35 1 -4.25 1 -3.90 0 -4.25 -0.10 -4.25 -1z"/>
  <path d="M211.50 1021 c0 -1 0.40 -1 19.25 -1 18.70 0 19.25 0.05 19.25 0.95 0 0.95 -0.55 1 -19.25 1 -18.90 0.05 -19.25 0 -19.25 -0.95z"/>
  <path d="M323.50 1021 c0 -0.95 0.35 -1 4.50 -1 4.15 0 4.50 0.05 4.50 1 0 0.95 -0.35 1 -4.50 1 -4.15 0 -4.50 -0.05 -4.50 -1z"/>
  <path d="M346 1021 c0 -0.90 0.35 -1 3.75 -1 3.40 0 3.75 0.10 3.75 1 0 0.90 -0.35 1 -3.75 1 -3.40 0 -3.75 -0.10 -3.75 -1z"/>
  <path d="M380 1021 c0 -0.95 0.35 -1 11 -1 10.65 0 11 0.05 11 1 0 0.95 -0.35 1 -11 1 -10.65 0 -11 -0.05 -11 -1z"/>
  <path d="M453 1021 c0 -0.95 0.30 -1 9.25 -1 8.75 0 9.25 0.05 9.25 0.95 0 0.90 -0.50 0.95 -9.25 1 -9 0.10 -9.25 0.05 -9.25 -0.95z"/>
  <path d="M473 1021 c0 -0.95 0.35 -1 9.50 -1 9.15 0 9.50 0.05 9.50 1 0 0.95 -0.35 1 -9.50 1 -9.15 0 -9.50 -0.05 -9.50 -1z"/>
  <path d="M494 1020.90 c0 -0.80 0.50 -0.90 4 -0.90 3.20 0 4 0.15 4 0.75 0 0.85 -0.40 0.90 -4.85 0.95 -2.70 0.05 -3.15 -0.05 -3.15 -0.80z"/>
  <path d="M504.50 1021 c0 -0.85 0.30 -1 2.50 -1 1.90 0 2.50 0.20 2.50 0.75 0 0.40 -0.30 0.75 -0.60 0.80 -0.35 0 -1.50 0.10 -2.50 0.25 -1.65 0.20 -1.90 0.10 -1.90 -0.80z"/>
  <path d="M512.40 1021.60 c-1.70 -0.35 -1 -1.60 0.85 -1.60 1.15 0 1.75 0.25 1.75 0.70 0 0.75 -1.25 1.20 -2.60 0.90z"/>
  <path d="M621 1021 c0 -0.90 0.35 -1 3.50 -1 3.05 0 3.50 0.10 3.50 0.90 0 0.80 -0.45 0.95 -3.50 1 -3.15 0.05 -3.50 -0.05 -3.50 -0.90z"/>
  <path d="M662.50 1020.90 c0 -0.80 0.45 -0.90 3.25 -0.90 2.85 0 3.25 0.10 3.25 0.95 0 0.80 -0.40 0.90 -3.25 0.90 -2.80 -0.05 -3.25 -0.15 -3.25 -0.95z"/>
  <path d="M722.50 1020.95 c0 -0.85 0.35 -0.95 4 -0.95 3.55 0 4 0.10 4 0.90 0 0.85 -0.45 0.95 -4 1 -3.65 0.05 -4 -0.05 -4 -0.95z"/>
  <path d="M770.50 1020.90 c0 -0.80 0.55 -0.90 5.75 -0.90 4.70 0 5.75 0.15 5.75 0.75 0 0.90 -2.15 1.25 -7.35 1.15 -3.60 -0.10 -4.15 -0.20 -4.15 -1z"/>
  <path d="M785.35 1021.60 c-0.45 -0.10 -0.85 -0.50 -0.85 -0.90 0 -0.60 1.45 -0.70 8.25 -0.70 7.60 0 8.25 0.05 8.25 0.90 0 0.80 -0.65 0.90 -7.40 0.85 -4.05 0 -7.80 -0.05 -8.25 -0.15z"/>
  <path d="M824.40 1021.60 c-0.50 -0.10 -0.90 -0.50 -0.90 -0.90 0 -0.55 1.30 -0.70 7.25 -0.70 6.70 0 7.25 0.05 7.25 0.90 0 0.85 -0.50 0.95 -6.35 0.90 -3.55 0 -6.80 -0.10 -7.25 -0.20z"/>
  <path d="M882 1021 c0 -0.90 0.35 -1 2.75 -1 2.40 0 2.75 0.10 2.75 1 0 0.90 -0.35 1 -2.75 1 -2.40 0 -2.75 -0.10 -2.75 -1z"/>
  <path d="M899.50 1021 c0 -0.85 0.35 -1 2.25 -1 1.90 0 2.25 0.15 2.25 1 0 0.85 -0.35 1 -2.25 1 -1.90 0 -2.25 -0.15 -2.25 -1z"/>
  <path d="M1011 1021.05 c0 -0.90 0.30 -1.05 2.45 -1.05 3.10 0 5.45 -0.80 5.80 -2.05 0.20 -0.60 0.75 -0.95 1.60 -0.95 1.10 0 1.20 0.15 0.95 1.40 -0.65 2.60 -2.25 3.45 -6.75 3.55 -3.80 0.10 -4.05 0.05 -4.05 -0.90z"/>
  <path d="M1020 1008.75 c0 -2.90 0.10 -3.25 1 -3.25 0.90 0 1 0.35 1 3.25 0 2.90 -0.10 3.25 -1 3.25 -0.90 0 -1 -0.35 -1 -3.25z"/>
  <path d="M0.95 999.40 c-0.05 -0.35 -0.15 -3.75 -0.20 -7.50 -0.15 -6.50 -0.10 -6.90 0.80 -6.90 0.90 0 0.95 0.45 0.95 7.50 0 6.35 -0.10 7.50 -0.75 7.50 -0.40 0 -0.80 -0.30 -0.80 -0.60z"/>
  <path d="M1020 953.75 c0 -18.65 0.05 -19.25 0.95 -19.25 0.95 0 1 0.60 1.05 19.25 0.05 19.05 0 19.25 -1 19.25 -1 0 -1 -0.25 -1 -19.25z"/>
  <path d="M1020 887.50 c0 -22.15 0 -22.50 1 -22.50 0.95 0 1 0.35 0.95 22.50 0 21.95 -0.05 22.50 -1 22.50 -0.95 0 -0.95 -0.55 -0.95 -22.50z"/>
  <path d="M0.55 878.25 c0 -7.35 0.05 -7.75 1 -7.75 0.90 0 0.95 0.40 0.95 7.75 0 7.35 -0.05 7.75 -0.95 7.75 -0.95 0 -1 -0.40 -1 -7.75z"/>
  <path d="M1020 831.75 c0 -4.80 0.15 -5.75 0.75 -5.75 0.85 0 0.80 -0.10 1.05 4.75 0.20 4.50 -0.15 6.75 -1.05 6.75 -0.60 0 -0.75 -1.05 -0.75 -5.75z"/>
  <path d="M1020 811.75 c0 -7.35 0.05 -7.75 0.95 -7.75 0.95 0 1 0.45 1 7.75 0 7.35 -0.05 7.75 -0.95 7.75 -0.95 0 -1 -0.40 -1 -7.75z"/>
  <path d="M1020 793.25 c0 -3.80 0.15 -4.75 0.70 -4.75 1 0 1.20 1.05 1.20 5.65 -0.05 3.40 -0.15 3.85 -0.95 3.85 -0.85 0 -0.95 -0.45 -0.95 -4.75z"/>
  <path d="M501.75 767.45 c-14 -0.50 -22 -1.45 -36.95 -4.50 -6.85 -1.35 -12.60 -2.60 -12.80 -2.70 -0.15 -0.10 -4.20 -1.20 -9 -2.50 -11.80 -3.10 -19.60 -5.55 -23.30 -7.30 -1.65 -0.80 -3.30 -1.45 -3.60 -1.45 -0.35 0 -1.65 -0.55 -2.95 -1.20 -1.35 -0.70 -2.95 -1.45 -3.65 -1.75 -4.25 -1.70 -20.25 -9.40 -22 -10.55 -0.70 -0.50 -3.95 -2.50 -7.25 -4.50 -5.25 -3.20 -11.05 -6.90 -17.30 -11.05 -4.80 -3.15 -9.65 -6.70 -14 -10.30 -11.80 -9.60 -29.65 -27.45 -37.40 -37.45 -2.15 -2.75 -4.25 -5.35 -4.60 -5.75 -0.40 -0.40 -0.90 -1.10 -1.20 -1.60 -0.65 -1.05 -11.05 -15.90 -11.75 -16.70 -0.25 -0.35 -0.50 -0.75 -0.50 -0.85 0 -0.40 -3.10 -5.50 -3.55 -5.80 -0.15 -0.15 -0.70 -1.15 -1.25 -2.25 -0.50 -1.10 -1.05 -2.10 -1.25 -2.25 -0.45 -0.35 -4 -7.25 -5.65 -11 -0.30 -0.70 -0.70 -1.35 -0.85 -1.50 -0.70 -0.55 -6.45 -14.10 -6.45 -15.15 0 -0.40 -0.40 -1.50 -0.85 -2.45 -0.45 -0.90 -1.10 -2.25 -1.50 -2.95 -1.40 -2.85 -5.75 -15.25 -7.20 -20.60 -3.90 -14.45 -4.85 -18.90 -5.95 -27.85 -0.30 -2.35 -0.90 -6.85 -1.30 -10 -0.40 -3.15 -0.95 -8.55 -1.25 -12 -0.25 -3.45 -0.75 -7.75 -1.05 -9.60 -0.60 -3.70 -0.25 -27.90 0.40 -29 0.20 -0.30 0.30 -1.70 0.25 -3 -0.05 -1.30 0.10 -2.40 0.35 -2.40 0.20 0 0.35 -0.65 0.20 -1.40 -0.10 -0.75 0.05 -3.05 0.35 -5.10 0.30 -2.05 0.80 -5.55 1.10 -7.75 0.30 -2.20 0.70 -4.10 0.90 -4.25 0.45 -0.35 1.45 -5.50 1.80 -9.25 0.35 -3.60 2.25 -11.90 2.80 -12.25 0.60 -0.40 1.40 -4.45 1.45 -6.85 0 -1.20 0.25 -2.15 0.50 -2.15 0.30 0 0.50 -0.75 0.50 -1.70 0 -1.95 0.90 -4.75 1.85 -5.70 0.35 -0.35 0.65 -1.35 0.65 -2.15 0 -0.80 0.25 -1.45 0.50 -1.45 0.30 0 0.50 -0.45 0.50 -1.05 0 -0.55 0.35 -1.35 0.75 -1.75 0.40 -0.45 0.75 -1.45 0.75 -2.25 0 -0.80 0.20 -1.45 0.45 -1.45 0.55 0 2.55 -5.25 2.55 -6.80 0 -0.65 0.20 -1.20 0.45 -1.20 0.55 0 1.55 -2.75 1.55 -4.30 0 -0.65 0.20 -1.20 0.45 -1.20 0.25 0 0.55 -0.65 0.70 -1.45 0.20 -0.80 0.70 -1.90 1.20 -2.40 1.10 -1.05 1.95 -2.80 2.35 -4.75 0.20 -0.80 0.60 -1.40 0.95 -1.40 0.65 -0.05 2.85 -4.35 2.85 -5.60 0 -0.45 0.30 -0.90 0.70 -1.05 0.85 -0.35 4.80 -7.40 4.80 -8.55 0 -0.45 0.25 -0.80 0.50 -0.80 0.60 0 3.50 -4.40 3.50 -5.30 0 -0.35 0.70 -1.30 1.50 -2.10 0.85 -0.85 1.50 -2 1.50 -2.55 0 -0.60 0.25 -1.05 0.50 -1.05 0.30 0 0.50 -0.35 0.50 -0.75 0 -0.40 0.25 -0.75 0.50 -0.75 0.30 0 0.50 -0.35 0.50 -0.75 0 -0.40 0.30 -0.75 0.65 -0.75 0.75 0 6.35 -8.10 6.35 -9.20 0 -0.45 0.35 -0.80 0.75 -0.80 0.40 0 0.75 -0.45 0.75 -1 0 -0.55 0.35 -1 0.75 -1 0.40 0 0.75 -0.45 0.75 -1 0 -0.55 0.35 -1 0.75 -1 0.40 0 0.75 -0.40 0.75 -0.95 0 -0.50 0.55 -1.30 1.25 -1.75 0.70 -0.45 1.25 -1.10 1.25 -1.40 0 -0.30 1.30 -1.75 2.95 -3.20 1.60 -1.45 3.30 -3.45 3.75 -4.45 0.50 -1 1.40 -2 2.10 -2.25 0.70 -0.30 1.20 -0.90 1.20 -1.50 0 -0.55 0.15 -1 0.40 -1 0.55 0 9.10 -8.25 9.10 -8.80 0 -0.25 0.60 -0.75 1.40 -1.10 1.65 -0.75 4.50 -3.40 6.05 -5.55 0.60 -0.85 1.45 -1.55 1.80 -1.55 0.40 0 1.30 -0.80 2.05 -1.75 0.70 -0.95 1.60 -1.75 2 -1.75 0.35 0 0.90 -0.40 1.15 -0.95 0.30 -0.50 1.10 -1.10 1.80 -1.25 0.70 -0.20 1.25 -0.65 1.25 -1.05 0 -0.40 0.45 -0.75 1 -0.75 0.60 0 1 -0.35 1 -0.80 0 -0.45 0.45 -0.90 0.95 -1.05 0.55 -0.15 1.10 -0.55 1.25 -0.95 0.15 -0.40 0.75 -0.70 1.30 -0.70 0.55 0 1 -0.35 1 -0.75 0 -0.40 0.35 -0.75 0.75 -0.75 0.40 0 0.75 -0.25 0.75 -0.50 0 -0.30 0.55 -0.75 1.25 -1 0.70 -0.25 1.25 -0.70 1.25 -1 0 -0.25 0.35 -0.50 0.75 -0.50 0.45 0 0.90 -0.35 1.05 -0.75 0.20 -0.40 0.75 -0.75 1.25 -0.75 0.50 0 1.20 -0.45 1.55 -1 0.35 -0.55 0.90 -1 1.25 -1 0.35 0 0.65 -0.20 0.65 -0.45 0 -0.25 0.70 -0.55 1.50 -0.70 0.90 -0.20 1.50 -0.65 1.50 -1.10 0 -0.40 0.45 -0.75 1 -0.75 0.55 0 1.15 -0.35 1.30 -0.75 0.20 -0.40 0.60 -0.75 1 -0.75 0.40 0 0.70 -0.20 0.70 -0.50 0 -0.25 0.45 -0.50 1 -0.50 0.55 0 1.15 -0.35 1.30 -0.75 0.20 -0.40 0.65 -0.75 1.05 -0.75 1.10 0 13.20 -6.60 13.50 -7.35 0.15 -0.35 0.70 -0.65 1.20 -0.65 0.55 0 1.10 -0.35 1.25 -0.75 0.20 -0.40 0.75 -0.75 1.25 -0.75 0.55 0 1.10 -0.30 1.25 -0.70 0.30 -0.75 1.90 -1.50 4.35 -2 0.75 -0.20 1.35 -0.55 1.35 -0.80 0 -0.30 0.60 -0.50 1.30 -0.50 1.35 0 3 -0.75 4.10 -1.85 0.35 -0.35 1.10 -0.65 1.60 -0.65 1.20 0 3.50 -1.05 3.50 -1.60 0 -0.20 0.55 -0.40 1.25 -0.40 0.70 0 1.25 -0.20 1.25 -0.50 0 -0.25 0.55 -0.50 1.25 -0.50 0.70 0 1.25 -0.20 1.25 -0.50 0 -0.25 0.55 -0.50 1.25 -0.50 1.60 0 10.95 -3.35 11.15 -4 0.10 -0.25 0.85 -0.50 1.65 -0.50 0.80 0 1.45 -0.20 1.45 -0.45 0 -0.25 0.95 -0.70 2.15 -1 1.15 -0.30 4.15 -1.10 6.65 -1.80 10.55 -2.85 29.20 -6.25 34.30 -6.25 1.60 0 2.90 -0.20 2.90 -0.45 0 -0.25 2.10 -0.60 4.65 -0.75 2.50 -0.20 6.05 -0.45 7.85 -0.65 1.80 -0.15 5.15 -0.40 7.50 -0.50 2.35 -0.10 7.05 -0.25 10.50 -0.40 8.60 -0.35 24.50 0.55 35.25 2.05 10.85 1.50 20.45 3.10 22.50 3.70 0.85 0.25 4.30 1.05 7.75 1.75 6 1.25 19.40 5.40 29.50 9.15 8.10 2.95 25.45 11 31.50 14.55 3.15 1.90 8.45 4.80 11.80 6.50 7.10 3.60 10.95 6 16.45 10.35 18.55 14.60 19.80 15.65 30.15 25.90 7.70 7.55 11.70 11.75 13.85 14.55 1.45 1.85 4.35 5.25 7.25 8.55 0.75 0.85 2.05 2.55 2.80 3.75 0.80 1.20 1.60 2.30 1.85 2.35 0.20 0.10 0.35 0.50 0.35 0.90 0 0.40 0.25 0.70 0.50 0.70 0.30 0 0.50 0.30 0.50 0.65 0 0.30 0.70 1.30 1.50 2.20 0.85 0.90 1.50 1.85 1.50 2.10 0 0.30 0.25 0.55 0.50 0.55 0.30 0 0.50 0.35 0.50 0.75 0 0.40 0.20 0.75 0.50 0.75 0.25 0 0.60 0.55 0.80 1.25 0.15 0.70 0.50 1.25 0.75 1.25 0.25 0 0.45 0.20 0.45 0.50 0 0.60 3.85 6.90 4.75 7.85 0.40 0.35 0.95 1.45 1.30 2.40 0.35 0.95 0.80 1.75 1 1.75 0.20 0 0.75 1 1.30 2.25 0.50 1.25 1.05 2.25 1.25 2.25 0.15 0 0.60 0.80 0.90 1.75 0.30 0.95 0.75 1.75 0.95 1.75 0.20 0 1.15 1.65 2.10 3.65 0.95 1.95 1.95 3.85 2.20 4.15 0.30 0.30 0.95 1.55 1.45 2.75 1.05 2.50 2.65 6.10 3.55 7.95 0.35 0.70 0.90 2.15 1.20 3.25 0.35 1.10 0.80 2.45 1.05 3 0.25 0.55 0.70 1.90 1 3 0.35 1.10 0.90 2.45 1.25 3 1.30 2.15 7.95 23.70 8.55 27.95 0.20 1.10 1.10 5.20 2.05 9.05 1 3.85 2.05 9.15 2.35 11.75 0.35 2.60 0.75 5.05 0.95 5.35 1.25 2 2.30 27.35 2 46.60 -0.10 6.25 -1.25 19.35 -2.15 24.55 -1.25 7.40 -2.10 12 -2.70 14.50 -1.75 7 -4.85 18.70 -6.10 23 -1.30 4.60 -6.50 19.15 -7.90 22.25 -0.40 0.85 -1.30 2.95 -2.05 4.75 -1.55 3.80 -6.85 15.15 -7.25 15.50 -0.15 0.15 -0.70 1.10 -1.25 2.15 -0.55 1 -1.15 1.85 -1.35 1.85 -0.20 0 -0.60 0.80 -0.95 1.75 -0.35 0.95 -0.80 1.75 -1 1.75 -0.20 0 -0.55 0.50 -0.75 1.15 -0.15 0.60 -0.60 1.45 -0.95 1.85 -0.35 0.40 -1.30 1.90 -2.05 3.35 -4.05 7.25 -6.50 11.30 -7.55 12.45 -0.65 0.70 -1.15 1.35 -1.15 1.50 0 0.15 -0.65 1.25 -1.50 2.45 -0.80 1.20 -1.50 2.40 -1.50 2.70 0 0.30 -0.15 0.55 -0.35 0.55 -0.25 0 -0.95 0.85 -1.65 1.85 -1.50 2.25 -2.45 3.45 -3.60 4.75 -0.50 0.50 -0.90 1.05 -0.90 1.20 0 0.15 -0.30 0.60 -0.60 0.95 -1.30 1.45 -1.70 2 -2.05 2.90 -0.15 0.45 -0.65 0.85 -1.10 0.85 -0.40 0 -0.75 0.25 -0.75 0.60 0 0.85 -2.45 3.90 -3.15 3.90 -0.35 0 -0.95 0.75 -1.40 1.65 -0.40 0.85 -1.50 2.05 -2.35 2.60 -0.85 0.55 -1.55 1.30 -1.60 1.70 0 0.75 -9.90 11.05 -10.65 11.05 -0.20 0 -1 0.70 -1.70 1.50 -0.65 0.85 -1.60 1.50 -2.05 1.50 -0.50 0 -1.25 0.70 -1.70 1.50 -0.50 0.90 -1.25 1.50 -1.90 1.50 -0.55 0 -1 0.35 -1 0.70 0 0.80 -2.95 3.30 -3.85 3.30 -0.30 0 -0.65 0.45 -0.80 1 -0.15 0.55 -0.65 1 -1.20 1 -0.50 0 -1.30 0.70 -1.75 1.50 -0.45 0.85 -1.20 1.50 -1.55 1.50 -0.40 0 -0.85 0.35 -1.05 0.75 -0.15 0.40 -0.60 0.75 -1 0.75 -0.35 0 -0.80 0.35 -1 0.75 -0.15 0.40 -0.60 0.75 -1.05 0.75 -0.40 0 -0.75 0.25 -0.75 0.50 0 0.30 -0.25 0.50 -0.55 0.50 -0.30 0 -0.80 0.30 -1.15 0.65 -0.40 0.30 -1.20 0.95 -1.80 1.35 -0.60 0.40 -1.40 1 -1.70 1.30 -0.35 0.30 -1.10 0.75 -1.70 0.90 -0.60 0.20 -1.10 0.60 -1.10 0.85 0 0.25 -0.35 0.45 -0.75 0.45 -0.40 0 -0.75 0.25 -0.75 0.50 0 0.30 -0.35 0.50 -0.75 0.50 -0.40 0 -0.75 0.25 -0.75 0.50 0 0.30 -0.35 0.50 -0.75 0.50 -0.40 0 -0.75 0.25 -0.75 0.50 0 0.30 -0.45 0.50 -1 0.50 -0.55 0 -1.15 0.35 -1.30 0.75 -0.20 0.40 -0.60 0.75 -0.95 0.75 -0.35 0 -0.75 0.35 -0.95 0.75 -0.15 0.40 -0.75 0.75 -1.30 0.75 -0.55 0 -1 0.20 -1 0.45 0 0.65 -4.20 3.05 -5.35 3.05 -0.50 0 -1.45 0.60 -2.10 1.25 -0.65 0.70 -1.60 1.25 -2.10 1.25 -0.50 0 -0.95 0.20 -0.95 0.50 0 0.25 -0.55 0.60 -1.25 0.80 -0.70 0.15 -1.25 0.45 -1.25 0.65 0 0.60 -3.80 2.55 -4.95 2.55 -0.60 0 -1.20 0.35 -1.40 0.75 -0.35 1.05 -11 6.25 -12.70 6.25 -0.75 0 -1.45 0.30 -1.60 0.65 -0.15 0.40 -1.70 1.20 -3.45 1.80 -1.70 0.65 -3.60 1.35 -4.15 1.55 -0.55 0.25 -2.05 0.90 -3.30 1.40 -1.30 0.55 -3.10 1.15 -4 1.35 -2.90 0.55 -6.70 1.90 -7.20 2.50 -0.25 0.30 -3.65 1.45 -7.50 2.45 -3.85 1.05 -8 2.20 -9.25 2.60 -4.10 1.25 -14.65 3.60 -20.75 4.65 -8.25 1.40 -13.30 1.95 -25.25 2.80 -10.95 0.80 -12.50 0.80 -28.75 0.20z m107 -105.45 c-1.25 -0.45 -16.05 -0.40 -16.55 0.10 -0.20 0.20 3.70 0.35 8.60 0.35 4.90 -0.05 8.50 -0.20 7.95 -0.45z m46 -4.65 c0.20 -1.45 0.55 -2.80 0.75 -3.10 0.20 -0.25 0.55 -1.75 0.75 -3.25 0.20 -1.50 0.55 -2.85 0.75 -3 0.55 -0.40 1.15 -3.50 0.65 -3.50 -0.25 0 -0.40 -0.75 -0.30 -1.60 0.55 -7.65 1.10 -14.25 1.20 -14.65 0.10 -0.25 -0.05 -1.05 -0.25 -1.70 -0.25 -0.80 -0.20 -1.30 0.20 -1.55 0.50 -0.30 0.55 -1.25 0.25 -3.85 -0.25 -1.85 -0.40 -10.60 -0.40 -19.40 0.05 -23.50 0.05 -26.90 0.05 -39.10 -0.05 -6.15 0 -11.45 0 -11.75 0.15 -1.55 -0.90 -25.85 -1.15 -27.40 -0.45 -2.50 -0.45 -3.35 -0.05 -7 0.45 -4.25 0.85 -12 0.85 -18.25 0 -2.75 0.25 -7.20 0.50 -9.85 0.40 -4.25 0.35 -5.35 -0.50 -8.80 -0.75 -2.80 -0.90 -4.35 -0.60 -5.45 0.25 -0.85 0.25 -1.80 0 -2.20 -0.20 -0.40 -0.20 -0.80 0.10 -1 0.80 -0.45 0.65 -7.05 -0.15 -7.55 -0.50 -0.30 -0.50 -0.40 0 -0.40 0.30 0 0.60 -0.35 0.60 -0.75 0 -0.40 -0.30 -0.75 -0.60 -0.80 -0.50 0 -0.50 -0.10 0 -0.30 0.30 -0.10 0.60 -0.65 0.60 -1.15 0 -0.50 0.30 -1.05 0.65 -1.15 0.45 -0.20 0.45 -0.40 0 -0.70 -0.30 -0.25 -0.70 -2.65 -0.90 -5.90 -0.20 -3.05 -0.60 -5.80 -0.85 -6.15 -0.30 -0.35 -0.60 -2.55 -0.75 -4.85 -0.15 -4 -0.10 -4.25 0.85 -4.25 0.80 0 1 -0.35 1 -1.70 0 -1.40 -0.20 -1.75 -1.10 -1.90 -1 -0.15 -1.20 -0.55 -1.55 -3.05 -0.25 -1.75 -0.20 -3.20 0.10 -3.75 0.45 -0.75 0.55 -0.70 0.55 0.40 0.05 0.70 0.20 0.95 0.35 0.65 0.10 -0.35 0.50 -0.65 0.80 -0.65 0.35 0 0.65 -1 0.75 -2.50 0.10 -1.95 -0.05 -2.50 -0.65 -2.50 -0.45 0 -0.75 -0.45 -0.75 -1.25 0 -0.70 -0.25 -1.25 -0.55 -1.25 -0.30 0 -0.40 0.55 -0.25 1.40 0.15 0.75 0.10 1.70 -0.20 2.10 -0.35 0.50 -0.45 -0.65 -0.45 -3.75 0.05 -3 0.20 -4.10 0.45 -3.25 0.20 0.70 0.40 1 0.45 0.65 0.05 -0.30 0.45 -0.95 0.90 -1.45 0.65 -0.65 0.70 -0.95 0.25 -1.10 -0.70 -0.20 -0.80 -2.10 -0.10 -2.10 0.30 0 0.50 -0.35 0.50 -0.75 0 -0.40 -0.25 -0.75 -0.50 -0.75 -0.30 0 -0.50 -1.15 -0.45 -2.60 0.15 -4.65 -0.55 -12.60 -1.15 -12.95 -0.30 -0.20 -0.40 -0.70 -0.25 -1.15 0.20 -0.45 0.15 -0.80 -0.10 -0.80 -0.20 0 -0.40 -0.65 -0.35 -1.50 0.05 -0.80 0.25 -1.50 0.45 -1.50 0.20 0 0.15 -0.45 -0.15 -0.95 -0.75 -1.45 -0.65 -4.05 0.20 -4.05 0.60 0 0.60 -0.25 -0.05 -1.55 -0.55 -1.15 -0.80 -3.55 -0.90 -9.35 -0.20 -9.95 -0.15 -9.60 -0.75 -9.60 -0.30 0 -0.55 2.10 -0.60 5.15 l-0.10 5.10 -0.25 -4.60 c-0.15 -2.50 -0.40 -4.70 -0.60 -4.85 -0.30 -0.35 -74.90 -0.50 -75.25 -0.15 -0.15 0.10 -0.30 25 -0.35 55.30 l-0.10 55.05 -1.10 0 c-0.65 0 -1.15 0.25 -1.15 0.55 0 0.65 -7.15 0.10 -7.40 -0.60 -0.25 -0.60 -2.60 -0.55 -2.60 0.05 0 0.80 -96 0.70 -96.05 -0.10 0 -0.50 -0.10 -0.50 -0.30 0 -0.35 0.90 -4.65 0.80 -4.65 -0.15 0 -0.40 0.35 -0.75 0.75 -0.75 0.40 0 0.75 -0.20 0.75 -0.50 0 -0.25 0.35 -0.50 0.75 -0.50 0.40 0 0.75 0.25 0.75 0.50 0 0.30 0.80 0.50 1.75 0.50 1.75 0 2.55 -0.95 0.90 -1.05 -0.50 0 -3.50 -0.25 -6.65 -0.50 -3.15 -0.30 -6.65 -0.60 -7.75 -0.65 -3.95 -0.20 -4.10 -0.35 -4.05 -4.55 0.05 -2.05 0.25 -3.75 0.50 -3.75 0.20 0 0.30 -0.75 0.20 -1.60 -0.40 -2.45 0.45 -4.40 1.85 -4.40 1 0 1.25 -0.35 1.70 -2.60 0.30 -1.45 0.65 -4 0.75 -5.65 0.10 -1.65 0.55 -4 0.95 -5.25 0.40 -1.25 0.75 -2.90 0.75 -3.70 0 -0.75 0.20 -1.55 0.45 -1.75 0.30 -0.15 0.65 -1.70 0.80 -3.40 0.25 -2.65 0.20 -3.15 -0.45 -3.15 -0.55 0 -0.70 -0.25 -0.45 -0.85 0.60 -1.45 0.90 -5.55 0.50 -6.50 -0.45 -1 -0.55 -1.45 -0.65 -2.70 -0.05 -0.45 -0.55 -0.95 -1.15 -1.10 -0.95 -0.25 -1 -0.55 -0.80 -6.95 0.15 -3.65 0.45 -7.80 0.70 -9.15 0.25 -1.40 0.25 -3.30 0 -4.25 -0.35 -1.55 -0.80 -7.90 -1.60 -21.55 -0.15 -2.80 -0.60 -5.05 -1.25 -6.50 -0.80 -1.85 -1 -2 -1 -0.95 -0.05 0.75 -0.45 0 -1.05 -2 -0.60 -1.80 -1.15 -3.60 -1.30 -4 -0.20 -0.40 -0.25 -0.90 -0.25 -1.10 0.05 -0.25 -0.15 -0.40 -0.40 -0.40 -0.30 0 -0.50 0.30 -0.45 0.65 0.20 1.50 -0.10 2.35 -0.80 2.35 -0.45 0 -0.75 -0.45 -0.75 -1.10 l0 -1.15 -36.60 0.15 c-20.15 0.10 -36.75 0.25 -36.85 0.40 -0.45 0.45 -0.70 214.65 -0.30 255.30 l0.35 39.15 36.60 0 c23.80 0 36.70 -0.15 36.90 -0.50 0.20 -0.25 0.40 -1.15 0.40 -1.90 0 -2.25 1 -1.05 1.05 1.30 0.05 1.30 0.15 1.60 0.30 0.85 0.10 -0.70 0.85 -2.65 1.70 -4.40 0.80 -1.75 1.45 -3.40 1.45 -3.70 0 -0.25 0.35 -0.40 0.75 -0.25 1 0.40 1.20 -0.05 1.30 -3.20 0.05 -1.50 0.30 -2.95 0.50 -3.20 0.20 -0.30 0.55 -2.10 0.70 -4 0.20 -1.95 0.80 -5.50 1.35 -8 0.90 -4.05 1 -6 0.90 -19.25 -0.05 -8.10 -0.05 -15.95 0.05 -17.40 0.05 -1.90 -0.10 -2.85 -0.60 -3.15 -0.50 -0.30 -0.50 -0.45 -0.05 -0.45 0.30 0 0.60 -0.35 0.60 -0.75 0 -0.40 -0.30 -0.75 -0.60 -0.80 -0.50 0 -0.50 -0.10 0 -0.30 0.35 -0.10 0.60 -1.05 0.55 -2.05 -0.05 -1.65 -0.10 -1.75 -0.45 -0.60 -0.25 0.70 -0.40 0.90 -0.45 0.45 -0.05 -0.45 -0.15 -1.60 -0.30 -2.50 -0.20 -1.50 -0.20 -1.55 0.25 -0.45 0.35 1.05 0.45 0.90 0.35 -1 -0.15 -4.90 0.15 -8.25 0.65 -7.50 0.40 0.60 0.50 0.45 0.50 -0.60 0 -0.80 -0.20 -1.40 -0.50 -1.40 -0.25 0 -0.50 -0.35 -0.50 -0.75 0 -0.40 0.25 -0.75 0.60 -0.75 0.40 0 0.50 -1.90 0.25 -7.10 -0.15 -3.95 -0.10 -8.25 0.15 -9.65 0.20 -1.40 0.20 -2.55 -0.05 -2.65 -1.70 -0.65 1.45 -3.60 3.85 -3.60 1.85 0 1 -0.75 -0.95 -0.85 -0.90 0 -1.90 -0.10 -2.20 -0.10 -0.35 -0.05 -0.65 -0.35 -0.65 -0.65 0 -0.50 12.20 -0.65 59.25 -0.65 l59.25 0 -0.25 55.85 -0.25 55.90 10.80 -0.35 c8.55 -0.25 10.85 -0.20 11.20 0.35 0.30 0.50 0.90 0.50 2.80 0.05 1.75 -0.45 9.25 -0.55 26.60 -0.40 24.10 0.25 24.10 0.25 24.85 -0.80 0.70 -1.05 0.75 -1 0.75 0.65 0.05 1.60 0.10 1.65 0.70 0.85 0.40 -0.50 0.85 -2.10 1.05 -3.50z m-80 -184.60 c0.05 -1.10 0 -1.60 -0.10 -1.15 -0.15 0.60 -0.90 1 -2.15 1.20 -2.85 0.45 -1.75 2.25 1.20 2.05 0.70 -0.10 0.95 -0.55 1.05 -2.10z m-67.85 0.85 c0.25 -0.85 -0.85 -0.75 -1.70 0.15 -0.70 0.65 -0.65 0.75 0.35 0.60 0.65 -0.10 1.25 -0.45 1.35 -0.75z m7.95 -0.10 c0.20 -0.65 0.15 -0.65 -0.30 0 -0.50 0.65 -0.55 0.65 -0.55 0 0 -0.50 -0.15 -0.55 -0.40 -0.20 -0.20 0.30 -0.70 0.70 -1.10 0.85 -0.40 0.20 -0.10 0.25 0.70 0.20 0.80 -0.05 1.55 -0.45 1.65 -0.85z m3.35 0.25 c-0.30 -0.80 -1.70 -1.05 -1.70 -0.35 0 0.65 0.55 1.10 1.30 1.10 0.40 0 0.55 -0.30 0.40 -0.75z m3.70 -0.30 c0.15 -0.55 0.05 -0.55 -0.35 0.05 -0.50 0.65 -0.55 0.65 -0.55 0 0 -0.65 -0.05 -0.65 -0.50 0 -0.30 0.50 -0.50 0.55 -0.50 0.15 0 -0.35 -0.35 -0.65 -0.75 -0.65 -0.80 0 -1 0.60 -0.40 1.15 0.55 0.60 2.85 0.05 3.05 -0.70z m2.10 0 c0 -0.25 -0.35 -0.45 -0.75 -0.45 -0.75 0 -1 0.60 -0.45 1.15 0.40 0.40 1.20 -0.05 1.20 -0.70z m11 0.20 c0 -0.60 -0.15 -0.70 -0.40 -0.35 -0.20 0.35 -0.80 0.70 -1.35 0.85 -0.75 0.20 -0.70 0.25 0.40 0.30 1 0.05 1.35 -0.20 1.35 -0.80z m32.90 0.25 c-0.30 -0.90 -5.40 -0.95 -5.40 -0.10 0 0.50 0.75 0.70 2.80 0.70 1.95 0 2.70 -0.20 2.60 -0.60z m-116.55 -8.25 c-0.10 -0.80 -0.20 -0.25 -0.20 1.10 0 1.40 0.10 2 0.20 1.40 0.10 -0.65 0.10 -1.75 0 -2.50z m206.65 -33.40 c0 -0.40 -0.45 -0.75 -1 -0.75 -0.55 0 -1 0.35 -1 0.75 0 0.40 0.45 0.75 1 0.75 0.55 0 1 -0.35 1 -0.75z m-0.50 -3 c0 -0.40 -0.35 -0.75 -0.75 -0.75 -0.40 0 -0.75 0.35 -0.75 0.75 0 0.40 0.35 0.75 0.75 0.75 0.40 0 0.75 -0.35 0.75 -0.75z"/>
  <path d="M651 655.75 c0 -2 1.20 -2.45 1.70 -0.60 0.50 1.85 0.35 2.35 -0.70 2.35 -0.80 0 -1 -0.35 -1 -1.75z"/>
  <path d="M651 380.75 c0 -1.60 0.20 -2.25 0.70 -2.25 0.40 0 0.85 -0.30 1 -0.60 0.25 -0.50 0.15 1.45 -0.20 5 0 0.05 -0.35 0.10 -0.75 0.10 -0.55 0 -0.75 -0.60 -0.75 -2.25z"/>
  <path d="M1020 732.50 c0 -3.10 0.10 -3.50 0.95 -3.50 0.90 0 1.05 1.20 0.60 6.40 -0.05 0.30 -0.40 0.60 -0.80 0.60 -0.60 0 -0.75 -0.70 -0.75 -3.50z"/>
  <path d="M1020 702.75 c0 -17.05 0.05 -17.75 0.95 -17.75 0.90 0 0.95 0.70 1 16.45 0.05 9.05 -0.05 17.05 -0.25 17.75 -0.15 0.70 -0.60 1.30 -1 1.30 -0.60 0 -0.70 -2.90 -0.70 -17.75z"/>
  <path d="M1020 675.25 c0 -2.35 0.15 -2.75 0.95 -2.75 0.75 0 0.90 0.40 0.90 2.75 0 2.35 -0.15 2.75 -0.90 2.75 -0.80 0 -0.95 -0.40 -0.95 -2.75z"/>
  <path d="M0.90 676.15 c-0.30 -1.40 0.10 -2.65 0.90 -2.65 0.45 0 0.70 0.55 0.70 1.75 0 1.85 -1.20 2.50 -1.60 0.90z"/>
  <path d="M0.90 670.15 c-0.30 -1.40 0.10 -2.65 0.90 -2.65 0.45 0 0.70 0.55 0.70 1.75 0 1.85 -1.20 2.50 -1.60 0.90z"/>
  <path d="M1020 619.25 c0 -17.80 0.10 -21.25 0.70 -21.25 0.40 0 0.80 0.50 0.95 1.15 0.15 0.60 0.25 10.15 0.30 21.25 0 19.60 0 20.10 -0.95 20.10 -1 0 -1 -0.50 -1 -21.25z"/>
  <path d="M1020 593.25 c0 -1.85 1.20 -2.50 1.60 -0.85 0.30 1.35 -0.10 2.60 -0.90 2.60 -0.45 0 -0.70 -0.55 -0.70 -1.75z"/>
  <path d="M1020 582.50 c0 -5.45 0.10 -6.50 0.75 -6.50 0.40 0 0.80 0.40 0.80 0.90 0.05 0.80 0.05 10.20 0 11.50 -0.05 0.30 -0.40 0.60 -0.80 0.60 -0.65 0 -0.75 -1.05 -0.75 -6.50z"/>
  <path d="M1020 571.50 c0 -1.35 0.20 -2 0.70 -2 0.80 0 1.30 1.60 0.95 3 -0.50 1.85 -1.65 1.15 -1.65 -1z"/>
  <path d="M1020 552.25 c0 -12.25 0.10 -14.75 0.70 -14.75 1.10 0 1.20 1.40 1.25 14.50 0.05 13 -0.10 15 -1.25 15 -0.60 0 -0.70 -2.35 -0.70 -14.75z"/>
  <path d="M1020 529.25 c0 -6.45 0.10 -7.75 0.75 -7.75 1 0 1.30 2.35 1.05 8.75 -0.25 7.10 -0.20 6.75 -1.05 6.75 -0.65 0 -0.75 -1.20 -0.75 -7.75z"/>
  <path d="M1020 469.75 l0 -50.75 1 0 1.05 0 -0.05 49.65 c-0.05 27.25 -0.20 50.10 -0.35 50.75 -0.15 0.60 -0.55 1.10 -0.95 1.10 -0.60 0 -0.70 -7.75 -0.70 -50.75z"/>
  <path d="M0.50 436.25 c0 -3.40 0.10 -3.75 1 -3.75 0.90 0 1 0.35 1 3.75 0 3.40 -0.10 3.75 -1 3.75 -0.90 0 -1 -0.35 -1 -3.75z"/>
  <path d="M1020 370 c0 -22.70 0.05 -23.50 0.95 -23.50 0.90 0 0.95 0.85 0.95 23.50 0.05 22.95 0.05 23.50 -0.95 23.50 -0.95 0 -0.95 -0.55 -0.95 -23.50z"/>
  <path d="M1 344.80 c0 -0.40 -0.15 -0.80 -0.35 -0.90 -0.25 -0.05 -0.30 -13.70 -0.15 -30.30 0.15 -19.80 0.10 -30.15 -0.25 -30.30 -0.25 -0.15 -0.20 -0.25 0.15 -0.25 0.30 -0.05 0.60 -0.40 0.60 -0.80 0 -0.40 0.35 -0.75 0.75 -0.75 0.65 0 0.75 3.90 0.75 32 0 28.10 -0.10 32 -0.75 32 -0.40 0 -0.75 -0.30 -0.75 -0.70z"/>
  <path d="M1020 337.50 c0 -4.05 0.10 -4.50 0.95 -4.50 0.85 0 0.95 0.45 0.95 4.50 0 4.10 -0.10 4.50 -0.95 4.50 -0.85 0 -0.95 -0.40 -0.95 -4.50z"/>
  <path d="M1020 321.25 c0 -1.90 0.15 -2.25 1 -2.25 0.85 0 1 0.35 1 2.25 0 1.90 -0.15 2.25 -1 2.25 -0.85 0 -1 -0.35 -1 -2.25z"/>
  <path d="M1020 305.50 c0 -7.65 0.05 -8 1 -8 0.95 0 1 0.35 1 8 0 7.65 -0.05 8 -1 8 -0.95 0 -1 -0.35 -1 -8z"/>
  <path d="M1020 270 c0 -18.05 0 -18.50 1 -18.50 0.95 0 0.95 0.50 1 18.50 0 18.25 0 18.50 -1 18.50 -1 0 -1 -0.25 -1 -18.50z"/>
  <path d="M0.50 242.50 c0 -4.15 0.05 -4.50 1 -4.50 0.95 0 1 0.35 1 4.50 0 4.15 -0.05 4.50 -1 4.50 -0.95 0 -1 -0.35 -1 -4.50z"/>
  <path d="M1020 224.25 c0 -21.95 0 -22.25 1 -22.25 1 0 1 0.30 0.95 22.25 -0.05 21.45 -0.10 22.25 -1 22.25 -0.90 0 -0.95 -0.75 -0.95 -22.25z"/>
  <path d="M0.50 225.50 c0 -11.65 0.05 -12 1 -12 0.95 0 1 0.35 1 12 0 11.65 -0.05 12 -1 12 -0.95 0 -1 -0.35 -1 -12z"/>
  <path d="M1020 180.20 c0 -6.65 0.05 -7.25 0.90 -7.10 0.75 0.15 0.85 0.95 0.95 7.30 0.15 6.80 0.10 7.10 -0.85 7.10 -0.95 0 -1 -0.35 -1 -7.30z"/>
  <path d="M1020 169.25 c0 -1.85 1.20 -2.50 1.60 -0.85 0.30 1.35 -0.10 2.60 -0.90 2.60 -0.45 0 -0.70 -0.55 -0.70 -1.75z"/>
  <path d="M0.50 139.50 c0 -29.15 0 -29.50 1 -29.50 1 0 1 0.35 1 29.50 0 29.15 0 29.50 -1 29.50 -1 0 -1 -0.35 -1 -29.50z"/>
  <path d="M1020 164 c0 -2.35 0.15 -3 0.75 -3 0.75 0 0.90 0.55 0.85 3.25 -0.05 2.60 -0.10 2.75 -0.85 2.75 -0.60 0 -0.75 -0.65 -0.75 -3z"/>
  <path d="M1020 124.50 c0 -33.25 0 -33.50 1 -33.50 1 0 1 0.25 0.90 32.65 -0.05 17.90 -0.15 33 -0.30 33.50 -0.10 0.45 -0.55 0.85 -0.90 0.85 -0.60 0 -0.70 -5.30 -0.70 -33.50z"/>
  <path d="M0.50 55.25 c0 -25.50 0.15 -38.75 0.50 -38.75 0.30 0 0.50 -0.35 0.50 -0.75 0 -0.40 0.35 -0.75 0.80 -0.75 0.70 0 0.80 0.40 0.50 2.65 -0.15 1.40 -0.30 19.20 -0.30 39.50 0 36.50 0 36.85 -1 36.85 -1 0 -1 -0.35 -1 -38.75z"/>
  <path d="M1020 71 c0 -16.55 0.05 -17 1 -17 0.95 0 0.95 0.45 1 17 0 16.70 0 17 -1 17 -1 0 -1 -0.30 -1 -17z"/>
  <path d="M1.30 7.90 c-0.45 -1.80 -0.35 -4.90 0.20 -4.90 0.25 0 0.35 -0.35 0.20 -0.75 -0.25 -0.65 0.65 -0.75 6.60 -0.75 7.55 0 9.20 0.25 9.20 1.30 0 0.55 -1.35 0.70 -6.95 0.70 -7.75 0 -7.55 -0.10 -7.55 3.90 0 1.85 -1.20 2.25 -1.70 0.50z"/>
  <path d="M1020.50 6.25 c0 -1.25 -0.25 -2.70 -0.60 -3.25 -0.85 -1.35 -0.30 -1.70 2.75 -1.55 1.30 0.05 1.35 0.15 1.35 2.80 0 2.40 -0.10 2.75 -1 2.75 -0.55 0 -1 0.35 -1 0.75 0 0.40 -0.35 0.75 -0.75 0.75 -0.55 0 -0.75 -0.60 -0.75 -2.25z"/>
  <path d="M125.50 2.80 c0 -0.45 0.35 -0.80 0.75 -0.80 0.40 0 0.75 -0.20 0.75 -0.50 0 -0.55 5.55 -0.70 7.40 -0.20 2.10 0.60 1.30 1.70 -1.25 1.70 -1.35 0 -3.60 0.15 -5 0.30 -2.25 0.30 -2.65 0.20 -2.65 -0.50z"/>
  <path d="M219 2.65 c0 -0.35 0.35 -0.65 0.75 -0.65 0.40 0 0.75 -0.20 0.75 -0.50 0 -0.30 2.85 -0.50 7.65 -0.50 5.85 0.05 7.80 0.20 8.55 0.75 0.55 0.40 0.90 0.85 0.75 0.95 -0.10 0.10 -4.30 0.30 -9.30 0.40 -7.40 0.20 -9.15 0.10 -9.15 -0.45z"/>
  <path d="M260 2.75 c0 -0.40 0.35 -0.75 0.75 -0.75 0.40 0 0.75 -0.20 0.75 -0.50 0 -0.80 6.60 -0.60 7.70 0.25 0.55 0.40 0.90 0.80 0.75 0.95 -0.10 0.10 -2.40 0.30 -5.05 0.50 -4.20 0.25 -4.90 0.20 -4.90 -0.45z"/>
  <path d="M270.50 2.80 c0 -0.45 0.30 -0.80 0.70 -0.80 0.40 0 0.80 -0.25 0.90 -0.55 0.15 -0.45 5.65 -0.55 20.60 -0.50 19.85 0.10 22.30 0.25 22.30 1.65 0 0.25 -8.85 0.40 -19.60 0.40 -10.80 0 -20.85 0.15 -22.25 0.30 -2.25 0.30 -2.65 0.20 -2.65 -0.50z"/>
  <path d="M411.50 2.75 c0 -0.40 0.35 -0.75 0.75 -0.75 0.40 0 0.75 -0.20 0.75 -0.50 0 -0.80 8.10 -0.60 9.20 0.25 0.55 0.40 0.90 0.80 0.75 0.95 -0.10 0.10 -2.75 0.30 -5.80 0.45 -4.80 0.30 -5.65 0.20 -5.65 -0.40z"/>
  <path d="M561 2.80 c0 -0.45 0.35 -0.80 0.75 -0.80 0.40 0 0.75 -0.20 0.75 -0.50 0 -0.80 5.65 -0.60 6.80 0.20 0.50 0.40 0.85 0.80 0.70 0.95 -0.15 0.10 -2.20 0.35 -4.60 0.55 -3.80 0.30 -4.40 0.25 -4.40 -0.40z"/>
  <path d="M722.50 2.65 c0 -0.35 0.35 -0.65 0.75 -0.65 0.40 0 0.75 -0.20 0.75 -0.50 0 -0.30 4.10 -0.50 11.40 -0.50 9.15 0.05 11.55 0.15 12.30 0.75 0.55 0.40 0.90 0.85 0.75 0.95 -0.10 0.10 -6 0.30 -13.05 0.40 -10.10 0.10 -12.90 0 -12.90 -0.45z"/>
  <path d="M773.50 2.80 c0 -0.45 0.30 -0.80 0.70 -0.80 0.40 0 0.80 -0.25 0.90 -0.55 0.15 -0.40 0.50 -0.40 1.30 0.10 1.50 0.95 1.10 1.65 -1.05 1.85 -1.40 0.10 -1.85 -0.05 -1.85 -0.60z"/>
  <path d="M786 2.80 c0 -0.45 0.35 -0.80 0.75 -0.80 0.40 0 0.75 -0.20 0.75 -0.50 0 -0.75 4.15 -0.55 5.20 0.25 0.55 0.40 0.90 0.85 0.75 0.95 -0.10 0.10 -1.85 0.35 -3.80 0.55 -3.15 0.30 -3.65 0.25 -3.65 -0.45z"/>
  <path d="M832 2.65 c0 -0.35 0.35 -0.65 0.75 -0.65 0.40 0 0.75 -0.20 0.75 -0.50 0 -0.30 4.55 -0.50 12.65 -0.50 10.25 0.05 12.80 0.15 13.55 0.75 0.55 0.40 0.90 0.85 0.75 0.95 -0.10 0.10 -6.55 0.30 -14.35 0.40 -11.05 0.10 -14.10 0 -14.10 -0.45z"/>
  <path d="M891 2.80 c0 -0.45 0.35 -0.80 0.75 -0.80 0.40 0 0.75 -0.20 0.75 -0.45 0 -0.25 2.80 -0.50 6.25 -0.50 6 -0.10 6.25 -0.05 6.25 0.95 0 0.95 -0.30 1 -4.35 1 -2.45 0 -5.60 0.15 -7 0.30 -2.25 0.30 -2.65 0.20 -2.65 -0.50z"/>
  <path d="M946 2.80 c0 -0.45 0.35 -0.80 0.75 -0.80 0.40 0 0.75 -0.20 0.75 -0.50 0 -0.75 4.15 -0.55 5.20 0.25 0.55 0.40 0.90 0.85 0.75 0.95 -0.10 0.10 -1.85 0.35 -3.80 0.55 -3.15 0.30 -3.65 0.25 -3.65 -0.45z"/>
  <path d="M1005 2.80 c0 -0.45 0.35 -0.80 0.75 -0.80 0.40 0 0.75 -0.20 0.75 -0.50 0 -0.30 2.25 -0.50 5.75 -0.50 5.40 0 5.75 0.05 5.75 1 0 0.90 -0.35 1 -3.85 1 -2.15 0 -5.10 0.15 -6.50 0.30 -2.25 0.30 -2.65 0.20 -2.65 -0.50z"/>
  <path d="M51 2.50 c0 -0.25 0.30 -0.50 0.70 -0.50 0.40 0 0.80 -0.25 0.90 -0.55 0.15 -0.45 5 -0.55 17.90 -0.50 16.75 0.10 19.50 0.30 19.50 1.55 0 0.30 -7.30 0.50 -19.50 0.50 -12.65 0 -19.50 -0.20 -19.50 -0.50z"/>
  <path d="M137.50 2.25 c0 -0.40 0.70 -0.85 1.65 -1 2.85 -0.50 27.75 -1.10 38.35 -0.95 25.55 0.45 29.50 0.75 29.50 2.30 0 0.20 -15.65 0.35 -34.75 0.35 -29.15 0 -34.75 -0.15 -34.75 -0.70z"/>
  <path d="M344 2.50 c0 -0.25 0.30 -0.50 0.70 -0.50 0.40 0 0.80 -0.25 0.90 -0.55 0.30 -0.90 56.90 -0.75 58.35 0.15 0.55 0.35 1.05 0.80 1.05 1 0 0.25 -13.70 0.40 -30.50 0.40 -20 0 -30.50 -0.15 -30.50 -0.50z"/>
  <path d="M473.50 2.50 c0 -0.25 0.30 -0.50 0.70 -0.50 0.40 0 0.80 -0.25 0.90 -0.55 0.15 -0.40 4.95 -0.55 16.80 -0.55 16.05 0.05 18.60 0.30 18.60 1.60 0 0.30 -6.95 0.50 -18.50 0.50 -12 0 -18.50 -0.20 -18.50 -0.50z"/>
  <path d="M511.50 2.40 c0 -0.25 0.30 -0.40 0.70 -0.40 0.40 0 0.80 -0.30 0.95 -0.60 0.15 -0.50 4.50 -0.65 19.90 -0.55 20.60 0.10 22.95 0.25 22.95 1.40 0 0.60 -3.50 0.65 -22.25 0.60 -12.25 -0.05 -22.25 -0.25 -22.25 -0.45z"/>
  <path d="M583.50 2.70 c0 -0.20 0.40 -0.65 0.90 -1 0.65 -0.50 3.95 -0.65 14.50 -0.70 13.25 0 13.60 0 13.60 1 0 1 -0.35 1 -14.50 1 -7.95 0 -14.50 -0.15 -14.50 -0.30z"/>
  <path d="M616.50 2 c0 -0.85 0.35 -1 2.30 -1 2.35 0 4.20 0.65 4.20 1.50 0 0.30 -1.45 0.50 -3.25 0.50 -2.90 0 -3.25 -0.10 -3.25 -1z"/>
  <path d="M905.50 2 c0 -1 0.35 -1 15.65 -1 12.20 0.05 15.80 0.20 16.50 0.70 0.45 0.35 0.85 0.80 0.85 1 0 0.15 -7.40 0.30 -16.50 0.30 -16.15 0 -16.50 0 -16.50 -1z"/>
 </g>
 <g fill="#c0c5c3">
  <path d="M268.50 1023.25 c0 -0.60 -0.80 -0.75 -4.10 -0.80 -2.30 -0.05 -6.75 -0.20 -9.90 -0.35 -5.90 -0.35 -11.90 -0.35 -84.50 -0.25 -23.50 0.05 -44.20 0.05 -46 0 -13.45 -0.20 -87.05 0.30 -87.25 0.65 -0.15 0.25 -0.85 0.30 -1.65 0.15 -3.20 -0.60 -19.95 -0.75 -23.10 -0.15 -3.10 0.55 -9.05 0.10 -9.95 -0.75 -0.15 -0.20 -0.50 -6 -0.70 -12.90 -0.50 -15.80 -0.45 -984.75 0.05 -997.20 0.20 -5 0.50 -9.20 0.65 -9.40 0.35 -0.35 143.40 -0.90 178.70 -0.70 13.75 0.10 40.20 0.10 58.75 0.10 18.55 -0.05 42.85 0 54 0 11.15 0.05 27.55 0.10 36.50 0.10 8.95 -0.05 29.20 -0.05 45 0 15.80 0 54.20 -0.10 85.25 -0.20 78.60 -0.35 76.95 -0.35 102 -0.05 12.40 0.15 30.85 0.25 41 0.20 10.20 0 79.60 0 154.25 0 74.65 0 138.90 -0.05 142.75 -0.20 3.85 -0.10 28.60 0 55 0.20 26.70 0.20 51.15 0.15 55.15 -0.05 3.95 -0.25 8.10 -0.35 9.20 -0.20 l2.05 0.30 0.20 488 c0.10 268.40 0.15 494.40 0.10 502.25 0 7.85 0 17 0.05 20.40 0.05 4.25 -0.10 6.10 -0.50 6.10 -0.30 0 -0.40 0.25 -0.25 0.50 0.15 0.30 0.05 0.50 -0.25 0.50 -0.30 0 -0.40 0.25 -0.25 0.50 0.15 0.30 0.10 0.50 -0.20 0.50 -0.25 0 -1.10 0.25 -1.90 0.55 -3 1.20 -0.55 1.15 -93.90 1.20 -6.30 0 -18.60 -0.05 -27.25 -0.10 -122.10 -0.60 -190.75 -0.45 -191.90 0.50 -0.40 0.30 -2.30 0.35 -5.50 0.10 -5.85 -0.50 -9.50 -0.55 -28.35 -0.60 -7.95 0 -19.55 0 -25.75 0 -6.20 0 -29.90 0 -52.75 0 -22.80 0 -49.60 -0.05 -59.50 -0.15 -15.30 -0.15 -95.60 -0.25 -123.75 -0.15 -4.80 0.05 -33.70 0.05 -64.25 0.10 -60.25 0.05 -70.75 0.25 -70.75 1.35 0 0.55 -0.80 0.70 -3.25 0.70 -2.55 0 -3.25 -0.15 -3.25 -0.75z m260.90 -257.75 c0.05 -0.20 1.80 -0.25 3.85 -0.10 2.60 0.15 3.75 0.05 3.75 -0.35 0 -0.40 0.65 -0.45 2 -0.25 1.40 0.25 2 0.15 2 -0.25 0 -0.40 0.55 -0.50 1.65 -0.30 3.05 0.60 28.05 -4.20 33.10 -6.30 0.85 -0.35 1.95 -0.65 2.50 -0.70 1.95 -0.15 13 -3.40 13.50 -4 0.60 -0.70 5 -2.25 6.35 -2.25 0.50 0 0.90 -0.25 0.90 -0.55 0 -0.25 0.40 -0.45 0.90 -0.40 1.05 0.20 5.65 -1.50 6.35 -2.30 0.30 -0.35 1.10 -0.65 1.75 -0.65 1.60 0 6 -1.90 6 -2.60 0 -0.25 0.60 -0.50 1.40 -0.50 1.70 0 12.75 -5.35 12.35 -6 -0.15 -0.25 0.35 -0.60 1.10 -0.75 1.95 -0.40 5.70 -2.30 5.40 -2.75 -0.15 -0.20 0.45 -0.50 1.30 -0.70 0.85 -0.15 1.40 -0.50 1.20 -0.80 -0.15 -0.30 0.20 -0.50 0.85 -0.50 1.25 -0.05 3.05 -1.15 2.60 -1.65 -0.20 -0.15 0.35 -0.45 1.10 -0.60 2 -0.40 5.85 -2.50 5.60 -3.05 -0.05 -0.25 0.55 -0.55 1.35 -0.70 0.85 -0.20 1.45 -0.55 1.35 -0.90 -0.05 -0.35 0.35 -0.60 0.95 -0.60 0.55 0 0.85 -0.25 0.70 -0.50 -0.20 -0.30 0.35 -0.65 1.20 -0.80 0.85 -0.20 1.40 -0.50 1.25 -0.75 -0.15 -0.25 0.20 -0.45 0.80 -0.45 0.60 0 0.90 -0.20 0.75 -0.50 -0.15 -0.25 0.15 -0.50 0.75 -0.50 0.60 0 0.90 -0.20 0.75 -0.50 -0.15 -0.25 0.15 -0.50 0.75 -0.50 0.60 0 0.95 -0.20 0.80 -0.45 -0.20 -0.25 0.35 -0.60 1.20 -0.80 0.85 -0.20 1.40 -0.50 1.25 -0.75 -0.15 -0.20 0.35 -0.55 1 -0.70 0.70 -0.20 1.15 -0.50 1 -0.75 -0.10 -0.25 0.35 -0.60 1 -0.75 0.70 -0.20 1.15 -0.55 1 -0.80 -0.15 -0.30 0.15 -0.50 0.75 -0.50 0.60 0 0.95 -0.20 0.75 -0.45 -0.15 -0.25 0.25 -0.55 0.85 -0.65 0.65 -0.10 1.10 -0.35 1 -0.65 -0.10 -0.25 0.35 -0.65 1 -0.80 0.65 -0.15 1.10 -0.55 1 -0.85 -0.05 -0.35 0.35 -0.60 0.90 -0.60 0.65 0 1.40 -0.60 1.90 -1.50 0.45 -0.80 1.25 -1.50 1.75 -1.50 0.55 0 1.05 -0.45 1.20 -1 0.15 -0.55 0.50 -1 0.80 -1 0.90 0 3.85 -2.50 3.85 -3.30 0 -0.35 0.45 -0.70 1 -0.70 0.65 0 1.40 -0.60 1.90 -1.50 0.45 -0.80 1.20 -1.50 1.65 -1.50 0.95 0 3.10 -2.20 2.60 -2.65 -0.15 -0.20 0.15 -0.35 0.65 -0.35 1.20 0 11.45 -10.20 11 -10.95 -0.20 -0.30 0.35 -0.85 1.15 -1.25 1.60 -0.85 3.70 -3.45 3.20 -3.95 -0.15 -0.20 0.30 -0.55 0.95 -0.80 1.35 -0.50 3.55 -3.20 3.05 -3.70 -0.15 -0.20 0.35 -0.55 1.10 -0.85 0.90 -0.35 1.25 -0.75 1.05 -1.25 -0.15 -0.45 0 -0.75 0.45 -0.75 0.70 0 0.95 -0.60 0.80 -1.60 0 -0.25 0.30 -0.40 0.75 -0.40 0.50 0 0.70 -0.30 0.50 -0.75 -0.15 -0.45 0 -0.75 0.45 -0.75 0.70 0 2.05 -1.90 1.85 -2.60 -0.05 -0.25 0.25 -0.40 0.65 -0.40 0.40 0 0.75 -0.20 0.75 -0.50 0 -1 0.15 -1.25 1.10 -1.90 0.50 -0.35 0.80 -0.90 0.65 -1.15 -0.20 -0.25 0.05 -0.45 0.50 -0.45 0.55 0 0.75 -0.25 0.55 -0.75 -0.15 -0.40 -0.05 -0.75 0.15 -0.75 0.55 0 2.85 -3.60 2.70 -4.10 -0.10 -0.20 0.30 -0.60 0.85 -0.90 0.55 -0.30 0.90 -0.75 0.75 -0.95 -0.15 -0.25 0.10 -0.60 0.55 -0.75 0.40 -0.15 0.65 -0.50 0.50 -0.75 -0.15 -0.25 0.05 -0.60 0.50 -0.75 0.40 -0.15 0.60 -0.50 0.45 -0.80 -0.15 -0.25 -0.05 -0.50 0.25 -0.50 0.30 0 0.45 -0.20 0.30 -0.45 -0.15 -0.25 0.05 -0.60 0.50 -0.75 0.40 -0.15 0.60 -0.50 0.45 -0.80 -0.15 -0.25 -0.05 -0.50 0.25 -0.50 0.30 0 0.40 -0.20 0.25 -0.50 -0.15 -0.25 -0.05 -0.50 0.25 -0.50 0.30 0 0.40 -0.20 0.25 -0.50 -0.15 -0.25 -0.05 -0.50 0.30 -0.50 0.35 0 0.45 -0.15 0.30 -0.35 -0.20 -0.15 0.10 -0.65 0.70 -1.05 0.55 -0.40 0.90 -1 0.75 -1.40 -0.15 -0.40 -0.05 -0.70 0.25 -0.70 0.30 0 0.40 -0.20 0.25 -0.45 -0.15 -0.25 0.05 -0.60 0.50 -0.75 0.40 -0.15 0.60 -0.50 0.45 -0.80 -0.15 -0.25 -0.05 -0.50 0.30 -0.50 0.35 0 0.45 -0.15 0.30 -0.35 -0.20 -0.15 0.10 -0.65 0.70 -1.05 0.55 -0.40 0.90 -1 0.75 -1.40 -0.15 -0.40 -0.05 -0.70 0.25 -0.70 0.30 0 0.35 -0.20 0.20 -0.50 -0.15 -0.25 0.05 -0.50 0.50 -0.50 0.55 0 0.75 -0.25 0.55 -0.75 -0.15 -0.40 -0.05 -0.75 0.25 -0.75 0.30 0 0.35 -0.20 0.20 -0.50 -0.15 -0.25 -0.05 -0.50 0.25 -0.50 0.30 0 0.40 -0.20 0.25 -0.50 -0.15 -0.25 0 -0.50 0.35 -0.50 0.80 0 2.50 -2.90 2.10 -3.55 -0.15 -0.25 0.10 -0.45 0.55 -0.45 0.55 0 0.75 -0.25 0.55 -0.75 -0.15 -0.40 -0.05 -0.75 0.25 -0.75 0.30 0 0.35 -0.20 0.20 -0.50 -0.15 -0.25 -0.05 -0.50 0.25 -0.50 0.30 0 0.40 -0.20 0.25 -0.50 -0.15 -0.25 -0.05 -0.50 0.25 -0.50 0.30 0 0.40 -0.20 0.25 -0.50 -0.15 -0.25 -0.05 -0.50 0.25 -0.50 0.30 0 0.40 -0.20 0.25 -0.50 -0.15 -0.25 -0.05 -0.50 0.25 -0.50 0.30 0 0.40 -0.20 0.25 -0.50 -0.15 -0.25 -0.05 -0.50 0.25 -0.50 0.30 0 0.40 -0.20 0.25 -0.50 -0.15 -0.25 -0.05 -0.50 0.25 -0.50 0.30 0 0.40 -0.20 0.25 -0.50 -0.15 -0.25 -0.05 -0.50 0.25 -0.50 0.30 0 0.40 -0.20 0.25 -0.50 -0.15 -0.25 -0.05 -0.50 0.25 -0.50 0.35 0 0.50 -0.35 0.30 -0.75 -0.15 -0.40 -0.10 -0.75 0.15 -0.75 0.55 0 1.60 -2.50 1.30 -3.05 -0.20 -0.25 -0.05 -0.45 0.25 -0.45 0.30 0 0.40 -0.20 0.25 -0.50 -0.15 -0.25 -0.05 -0.50 0.25 -0.50 0.30 0 0.40 -0.20 0.25 -0.50 -0.15 -0.25 -0.05 -0.50 0.25 -0.50 0.35 0 0.50 -0.30 0.40 -0.60 -0.15 -0.35 0.10 -0.95 0.45 -1.35 0.40 -0.35 0.60 -0.90 0.50 -1.25 -0.10 -0.30 0.15 -0.80 0.55 -1.10 0.35 -0.25 0.75 -1.10 0.75 -1.85 0.05 -0.75 0.30 -1.35 0.50 -1.35 0.25 0 0.35 -0.30 0.25 -0.60 -0.15 -0.35 0.10 -0.95 0.45 -1.35 0.40 -0.35 0.60 -1 0.45 -1.35 -0.15 -0.40 -0.05 -0.70 0.25 -0.70 0.30 0 0.45 -0.30 0.35 -0.60 -0.15 -0.35 0.10 -0.95 0.45 -1.35 0.40 -0.35 0.60 -1 0.45 -1.35 -0.15 -0.40 -0.05 -0.70 0.25 -0.70 0.30 0 0.45 -0.35 0.25 -0.75 -0.15 -0.40 -0.05 -0.75 0.25 -0.75 0.30 0 0.45 -0.35 0.25 -0.75 -0.15 -0.40 -0.05 -0.75 0.20 -0.75 0.60 0 2.15 -4.85 1.75 -5.50 -0.15 -0.25 -0.05 -0.50 0.30 -0.50 0.30 0 0.45 -0.40 0.30 -1 -0.15 -0.55 -0.05 -1 0.25 -1 0.30 0 0.40 -0.35 0.20 -0.75 -0.15 -0.40 -0.05 -0.75 0.25 -0.75 0.30 0 0.45 -0.35 0.25 -0.75 -0.15 -0.40 -0.05 -0.75 0.25 -0.75 0.30 0 0.45 -0.35 0.25 -0.75 -0.15 -0.40 -0.05 -0.75 0.25 -0.75 0.35 0 0.45 -0.50 0.25 -1.25 -0.20 -0.80 -0.10 -1.25 0.25 -1.25 0.30 0 0.45 -0.35 0.25 -0.75 -0.15 -0.40 0 -0.75 0.25 -0.75 0.30 0 0.45 -0.45 0.30 -1 -0.15 -0.55 -0.05 -1 0.25 -1 0.30 0 0.40 -0.45 0.25 -1 -0.15 -0.55 -0.05 -1 0.25 -1 0.30 0 0.40 -0.55 0.30 -1.25 -0.15 -0.70 -0.05 -1.25 0.25 -1.25 0.25 0 0.35 -0.45 0.20 -1 -0.15 -0.55 -0.05 -1 0.25 -1 0.30 0 0.40 -0.35 0.20 -0.75 -0.15 -0.40 -0.05 -0.75 0.25 -0.75 0.30 0 0.45 -0.35 0.25 -0.75 -0.15 -0.40 0 -0.75 0.25 -0.75 0.30 0 0.45 -0.45 0.30 -1 -0.15 -0.55 -0.05 -1 0.25 -1 0.30 0 0.35 -0.55 0.20 -1.25 -0.20 -0.80 -0.10 -1.25 0.25 -1.25 0.35 0 0.45 -0.45 0.25 -1.25 -0.20 -0.80 -0.10 -1.25 0.25 -1.25 0.35 0 0.45 -0.45 0.25 -1.25 -0.20 -0.80 -0.10 -1.25 0.25 -1.25 0.40 0 0.50 -0.60 0.30 -1.75 -0.20 -1.05 -0.10 -1.75 0.25 -1.75 0.30 0 0.40 -0.45 0.25 -1 -0.15 -0.55 0 -1 0.25 -1 0.35 0 0.40 -0.70 0.25 -1.75 -0.20 -1.10 -0.10 -1.75 0.25 -1.75 0.35 0 0.40 -0.65 0.25 -1.75 -0.20 -1.10 -0.10 -1.75 0.25 -1.75 0.35 0 0.45 -1 0.30 -2.75 -0.15 -1.60 -0.05 -2.75 0.25 -2.75 0.30 0 0.35 -1 0.20 -2.50 -0.20 -1.65 -0.10 -2.50 0.25 -2.50 0.40 0 0.45 -1.15 0.25 -3.75 -0.20 -2.35 -0.15 -3.75 0.15 -3.75 0.30 0 0.40 -2.45 0.25 -6.60 -0.15 -3.65 -0.40 -11.15 -0.55 -16.65 -0.40 -14 -0.40 -14.10 -0.80 -14.55 -0.20 -0.20 -0.25 -1.20 -0.10 -2.25 0.20 -1.25 0.10 -2.20 -0.30 -2.70 -0.30 -0.40 -0.45 -0.95 -0.25 -1.20 0.15 -0.30 0.05 -0.95 -0.20 -1.45 -0.45 -0.85 -0.85 -3.25 -1.25 -8.10 -0.10 -0.95 -1 -5 -2 -9 -1.05 -4 -1.90 -7.70 -2 -8.25 -0.05 -0.60 -0.30 -1.30 -0.50 -1.65 -0.20 -0.35 -0.25 -0.80 -0.05 -1.05 0.15 -0.25 0.05 -0.60 -0.20 -0.80 -0.30 -0.15 -0.40 -0.60 -0.25 -0.95 0.15 -0.40 0.05 -0.85 -0.25 -1 -0.30 -0.20 -0.40 -0.65 -0.20 -1.05 0.15 -0.40 0 -0.75 -0.30 -0.75 -0.30 0 -0.40 -0.35 -0.25 -0.75 0.20 -0.40 0.05 -0.75 -0.30 -0.75 -0.35 0 -0.50 -0.35 -0.30 -0.75 0.15 -0.40 0.05 -0.75 -0.25 -0.75 -0.30 0 -0.40 -0.45 -0.20 -1 0.20 -0.55 0.10 -1 -0.20 -1 -0.30 0 -0.40 -0.30 -0.25 -0.70 0.15 -0.40 0.05 -0.85 -0.25 -1 -0.30 -0.20 -0.40 -0.65 -0.20 -1.05 0.15 -0.40 0 -0.75 -0.35 -0.75 -0.30 0 -0.40 -0.25 -0.25 -0.50 0.20 -0.30 0.05 -0.85 -0.25 -1.25 -0.35 -0.40 -0.45 -0.75 -0.25 -0.75 0.20 0 0.10 -0.35 -0.25 -0.75 -0.35 -0.40 -0.45 -0.75 -0.25 -0.75 0.20 0 0.10 -0.35 -0.25 -0.75 -0.35 -0.40 -0.45 -0.75 -0.25 -0.75 0.20 0 0.10 -0.30 -0.20 -0.65 -0.30 -0.40 -0.40 -0.85 -0.20 -1 0.15 -0.20 0.10 -0.35 -0.20 -0.35 -0.30 0 -0.50 -0.60 -0.50 -1.35 0 -0.75 -0.30 -1.45 -0.60 -1.55 -0.30 -0.10 -0.45 -0.40 -0.30 -0.65 0.15 -0.20 -0.05 -0.95 -0.40 -1.55 -0.60 -0.95 -1.95 -4.40 -2.10 -5.40 0 -0.15 -0.30 -0.75 -0.65 -1.30 -0.30 -0.60 -0.40 -1.20 -0.25 -1.40 0.15 -0.15 0.05 -0.30 -0.30 -0.30 -0.40 0 -0.55 -0.35 -0.35 -0.75 0.15 -0.40 0.05 -0.75 -0.25 -0.75 -0.30 0 -0.45 -0.35 -0.25 -0.75 0.15 -0.40 0.05 -0.75 -0.20 -0.75 -0.30 0 -0.45 -0.15 -0.40 -0.35 0.05 -0.25 -0.15 -0.90 -0.50 -1.45 -0.30 -0.60 -0.40 -1.20 -0.25 -1.40 0.15 -0.15 0 -0.30 -0.35 -0.30 -0.35 0 -0.50 -0.15 -0.35 -0.35 0.20 -0.15 -0.10 -1 -0.65 -1.90 -0.55 -0.90 -0.85 -1.75 -0.65 -1.90 0.15 -0.20 0.05 -0.35 -0.30 -0.35 -0.35 0 -0.45 -0.20 -0.30 -0.50 0.15 -0.25 0.05 -0.50 -0.25 -0.50 -0.30 0 -0.40 -0.25 -0.25 -0.50 0.15 -0.30 0.05 -0.50 -0.25 -0.50 -0.30 0 -0.40 -0.20 -0.25 -0.50 0.15 -0.25 0.05 -0.50 -0.25 -0.50 -0.30 0 -0.45 -0.20 -0.30 -0.45 0.20 -0.25 0.15 -0.55 -0.05 -0.65 -0.25 -0.05 -1.05 -1.55 -1.85 -3.25 -0.80 -1.75 -1.70 -3.15 -1.90 -3.15 -0.25 0 -0.30 -0.20 -0.15 -0.50 0.15 -0.25 0.10 -0.50 -0.20 -0.50 -0.25 0 -0.75 -0.80 -1.05 -1.75 -0.30 -0.95 -0.75 -1.75 -1 -1.75 -0.20 0 -0.55 -0.55 -0.70 -1.25 -0.20 -0.70 -0.55 -1.25 -0.85 -1.25 -0.30 0 -0.35 -0.20 -0.20 -0.50 0.15 -0.25 0.05 -0.50 -0.25 -0.50 -0.30 0 -0.40 -0.20 -0.25 -0.50 0.15 -0.30 0.05 -0.50 -0.20 -0.50 -0.30 0 -0.55 -0.35 -0.55 -0.75 0 -0.40 -0.25 -0.75 -0.55 -0.75 -0.25 0 -0.35 -0.20 -0.20 -0.50 0.15 -0.25 0.05 -0.50 -0.25 -0.50 -0.30 0 -0.40 -0.20 -0.25 -0.50 0.15 -0.25 0.05 -0.50 -0.25 -0.50 -0.30 0 -0.45 -0.20 -0.30 -0.45 0.20 -0.25 0.10 -0.55 -0.15 -0.65 -0.55 -0.20 -4.55 -6.75 -4.55 -7.40 0 -0.30 -0.20 -0.50 -0.50 -0.50 -0.25 0 -0.50 -0.35 -0.50 -0.75 0 -0.40 -0.25 -0.75 -0.55 -0.75 -0.25 0 -0.35 -0.20 -0.20 -0.50 0.15 -0.30 0.05 -0.50 -0.20 -0.50 -0.30 0 -0.55 -0.35 -0.55 -0.75 0 -0.40 -0.20 -0.75 -0.50 -0.75 -0.25 0 -0.50 -0.25 -0.50 -0.55 0 -0.25 -0.65 -1.20 -1.50 -2.10 -0.80 -0.90 -1.50 -1.90 -1.50 -2.20 0 -0.35 -0.20 -0.65 -0.50 -0.65 -0.25 0 -0.50 -0.30 -0.50 -0.70 0 -0.40 -0.15 -0.80 -0.35 -0.90 -0.25 -0.05 -1.05 -1.15 -1.85 -2.35 -0.75 -1.20 -2.05 -2.90 -2.80 -3.75 -2.90 -3.30 -5.80 -6.70 -7.25 -8.55 -2.15 -2.80 -6.15 -7 -13.85 -14.55 -10.35 -10.25 -11.60 -11.30 -30.15 -25.90 -5.50 -4.35 -9.35 -6.75 -16.45 -10.35 -3.35 -1.70 -8.65 -4.60 -11.80 -6.50 -5.35 -3.15 -22.90 -11.35 -29.75 -13.95 -12.40 -4.65 -26 -8.80 -34.75 -10.55 -2.60 -0.55 -5.30 -1.10 -6 -1.25 -0.70 -0.15 -1.80 -0.35 -2.50 -0.45 -0.70 -0.10 -1.80 -0.30 -2.50 -0.45 -0.70 -0.20 -6.50 -1.10 -12.90 -2.05 -17.55 -2.60 -29.70 -2.95 -53.35 -1.50 -1.65 0.10 -4.45 0.45 -6.25 0.75 -1.80 0.30 -3.80 0.40 -4.45 0.25 -0.70 -0.20 -1.35 -0.05 -1.55 0.25 -0.20 0.35 -1.85 0.60 -3.95 0.65 -1.95 0.05 -3.55 0.25 -3.55 0.45 0 0.25 -0.55 0.30 -1.25 0.10 -0.80 -0.20 -1.25 -0.10 -1.25 0.30 0 0.40 -0.50 0.45 -1.45 0.25 -0.80 -0.15 -1.60 -0.10 -1.75 0.20 -0.20 0.30 -1 0.40 -1.80 0.20 -1 -0.20 -1.50 -0.05 -1.50 0.35 0 0.40 -0.50 0.45 -1.50 0.25 -0.95 -0.20 -1.50 -0.15 -1.50 0.20 0 0.35 -0.50 0.45 -1.25 0.25 -0.80 -0.20 -1.25 -0.10 -1.25 0.25 0 0.35 -0.45 0.45 -1.25 0.25 -0.70 -0.15 -1.25 -0.10 -1.25 0.20 0 0.30 -0.45 0.40 -1 0.25 -0.55 -0.15 -1 0 -1 0.30 0 0.35 -0.45 0.45 -1.25 0.25 -0.80 -0.20 -1.25 -0.10 -1.25 0.30 0 0.30 -0.25 0.40 -0.50 0.25 -0.60 -0.40 -5.50 0.70 -5.50 1.15 0 0.20 -0.85 0.35 -1.85 0.40 -1 0 -1.95 0.30 -2.05 0.60 -0.10 0.35 -0.40 0.50 -0.60 0.35 -0.60 -0.35 -6.50 1.30 -6.50 1.85 0 0.20 -0.65 0.40 -1.45 0.40 -0.80 0 -1.55 0.25 -1.65 0.50 -0.20 0.65 -9.55 4 -11.15 4 -0.70 0 -1.25 0.25 -1.25 0.50 0 0.30 -0.55 0.50 -1.25 0.50 -0.70 0 -1.25 0.25 -1.25 0.50 0 0.30 -0.55 0.50 -1.25 0.50 -0.70 0 -1.25 0.20 -1.25 0.40 0 0.55 -2.30 1.60 -3.50 1.60 -0.50 0 -1.25 0.30 -1.60 0.65 -1.10 1.10 -2.75 1.85 -4.10 1.85 -0.70 0 -1.30 0.20 -1.30 0.50 0 0.25 -0.60 0.60 -1.35 0.80 -2.45 0.50 -4.15 1.30 -3.85 1.75 0.15 0.25 -0.40 0.60 -1.25 0.75 -0.85 0.20 -1.40 0.50 -1.25 0.75 0.10 0.25 -0.35 0.55 -1.10 0.75 -0.75 0.20 -1.70 0.70 -2.20 1.20 -1.15 1.15 -12.20 7 -13.25 7 -0.45 0 -0.65 0.25 -0.50 0.50 0.20 0.30 -0.35 0.65 -1.20 0.80 -0.85 0.20 -1.40 0.50 -1.25 0.75 0.15 0.25 -0.20 0.45 -0.80 0.45 -0.60 0 -0.90 0.25 -0.75 0.50 0.20 0.30 -0.35 0.65 -1.20 0.80 -0.85 0.20 -1.45 0.55 -1.40 0.85 0.05 0.30 -0.65 0.80 -1.55 1.10 -0.90 0.30 -1.45 0.70 -1.30 0.90 0.20 0.20 -0.15 0.35 -0.80 0.35 -0.65 0 -1 0.15 -0.85 0.35 0.45 0.45 -1.20 1.60 -2.30 1.65 -0.50 0 -0.75 0.20 -0.60 0.50 0.15 0.25 -0.30 0.60 -1 0.80 -0.65 0.15 -1.15 0.50 -1 0.70 0.15 0.20 -0.45 0.65 -1.30 0.95 -0.85 0.30 -1.40 0.75 -1.20 1.05 0.15 0.25 -0.15 0.50 -0.70 0.50 -0.60 0 -1 0.25 -0.95 0.60 0.10 0.30 -0.30 0.70 -0.85 0.80 -0.55 0.10 -1.20 0.45 -1.50 0.80 -0.25 0.35 -0.90 0.75 -1.40 0.95 -0.45 0.15 -0.80 0.60 -0.75 0.95 0.10 0.35 -0.35 0.70 -1 0.80 -0.60 0.10 -1 0.40 -0.80 0.65 0.15 0.25 -0.50 0.80 -1.45 1.20 -0.95 0.40 -1.85 1.05 -2 1.50 -0.20 0.40 -0.65 0.75 -1 0.75 -0.40 0 -1.35 0.80 -2.05 1.75 -0.75 0.95 -1.65 1.75 -2.05 1.75 -0.35 0 -1.20 0.75 -1.85 1.60 -1.40 2.05 -4 4.35 -6.05 5.55 -0.90 0.45 -1.35 0.85 -1.10 0.85 0.55 0 -8.80 9 -9.40 9 -0.20 0 -0.30 0.15 -0.30 0.40 0.20 1.05 -0.20 1.60 -1.40 2.25 -0.80 0.35 -1.35 0.95 -1.25 1.25 0.05 0.35 -1.50 2.25 -3.50 4.25 -2 1.95 -3.55 3.75 -3.50 3.95 0.05 0.20 -0.55 0.85 -1.30 1.40 -0.75 0.60 -1.40 1.30 -1.40 1.55 -0.05 0.25 -0.10 0.70 -0.15 0.95 0 0.30 -0.40 0.50 -0.80 0.50 -0.40 0 -0.70 0.15 -0.70 0.40 0.15 1 -0.10 1.60 -0.80 1.60 -0.40 0 -0.70 0.15 -0.70 0.40 0.15 1 -0.10 1.60 -0.75 1.60 -0.40 0 -0.65 0.30 -0.60 0.65 0.10 0.85 -5.85 9.35 -6.55 9.35 -0.35 0 -0.50 0.35 -0.35 0.75 0.20 0.45 0 0.75 -0.50 0.75 -0.50 0 -0.65 0.30 -0.50 0.75 0.20 0.45 0 0.75 -0.50 0.75 -0.45 0 -0.65 0.30 -0.50 0.70 0.15 0.35 -0.50 1.50 -1.45 2.50 -0.95 0.95 -1.60 1.90 -1.50 2 0.35 0.35 -3.30 5.80 -3.85 5.80 -0.30 0 -0.45 0.20 -0.30 0.45 0.35 0.50 -3.40 7.40 -4.65 8.55 -0.45 0.40 -0.80 1 -0.80 1.25 0 1.10 -2.55 5.70 -3.15 5.75 -0.35 0 -0.50 0.20 -0.35 0.50 0.15 0.30 0.05 0.50 -0.25 0.50 -0.30 0 -0.45 0.20 -0.25 0.45 0.35 0.60 -1.65 4.55 -2.35 4.55 -0.25 0 -0.30 0.25 -0.15 0.50 0.15 0.30 0.05 0.50 -0.25 0.50 -0.30 0 -0.40 0.25 -0.25 0.50 0.15 0.30 0.10 0.50 -0.20 0.50 -0.30 0 -0.40 0.35 -0.25 0.75 0.20 0.40 -0.05 0.85 -0.50 1.05 -0.45 0.15 -0.65 0.50 -0.50 0.75 0.35 0.60 -1.30 4.95 -1.90 4.95 -0.25 0 -0.30 0.25 -0.15 0.50 0.40 0.65 -2.25 7.50 -2.85 7.50 -0.25 0 -0.35 0.20 -0.20 0.45 0.35 0.55 -0.65 3.55 -1.25 3.55 -0.20 0 -0.30 0.30 -0.15 0.70 0.15 0.35 -0.10 1 -0.50 1.45 -0.40 0.40 -0.65 0.85 -0.50 0.95 0.35 0.35 -0.85 3.40 -1.35 3.40 -0.20 0 -0.30 0.35 -0.15 0.75 0.20 0.40 0.05 0.75 -0.25 0.75 -0.30 0 -0.40 0.35 -0.25 0.75 0.20 0.40 0.10 0.75 -0.10 0.75 -0.25 0 -0.45 0.85 -0.50 1.85 0 1 -0.30 1.95 -0.60 2.05 -0.30 0.10 -0.45 0.45 -0.30 0.80 0.30 0.80 -1.25 8 -1.75 8.20 -0.25 0.10 -0.35 0.60 -0.20 1.10 0.15 0.55 0.05 1 -0.25 1 -0.30 0 -0.40 0.45 -0.25 1 0.15 0.55 0.05 1 -0.25 1 -0.30 0 -0.40 0.45 -0.25 1 0.15 0.55 0.05 1 -0.25 1 -0.30 0 -0.40 0.45 -0.25 1 0.15 0.60 0 1 -0.30 1 -0.35 0 -0.50 0.20 -0.30 0.45 0.15 0.25 -0.10 2.45 -0.55 4.90 -0.40 2.40 -0.90 5.25 -1.05 6.25 -0.15 1.05 -0.45 1.90 -0.65 1.90 -0.15 0 -0.25 0.70 -0.10 1.50 0.10 0.85 0 1.50 -0.30 1.50 -0.30 0 -0.40 0.80 -0.25 2 0.15 1.15 0.10 2 -0.20 2 -0.30 0 -0.40 0.55 -0.25 1.25 0.10 0.70 0 1.25 -0.30 1.25 -0.30 0 -0.40 0.80 -0.25 2 0.20 1.25 0.10 2 -0.25 2 -0.35 0 -0.45 0.85 -0.25 2.50 0.20 1.70 0.10 2.50 -0.30 2.50 -0.40 0 -0.45 0.65 -0.25 2 0.20 1.05 0.15 2.35 -0.10 2.85 -0.55 1.20 -0.70 4.05 -0.90 15.40 -0.10 5.25 0 10.50 0.25 11.75 0.20 1.25 0.65 5.30 0.95 9 0.30 3.70 0.95 9.75 1.50 13.45 0.50 3.70 0.85 6.90 0.70 7.15 -0.15 0.20 -0.10 0.65 0.10 1 0.20 0.35 0.45 1.60 0.50 2.75 0.05 1.20 0.35 2.45 0.65 2.85 0.35 0.40 0.45 1.25 0.30 1.95 -0.20 0.70 -0.10 1.40 0.20 1.55 0.25 0.20 0.40 0.60 0.25 0.95 -0.30 0.80 2.15 11.15 3.05 13.05 0.40 0.80 0.60 1.60 0.50 1.85 -0.15 0.20 -0.05 0.50 0.20 0.70 0.30 0.15 0.40 0.60 0.20 1 -0.15 0.40 0 0.75 0.35 0.75 0.35 0 0.50 0.35 0.35 0.75 -0.20 0.40 -0.10 0.85 0.10 1 0.25 0.15 0.35 0.70 0.20 1.25 -0.15 0.60 0 1 0.30 1 0.35 0 0.50 0.20 0.35 0.45 -0.35 0.55 1.70 6.70 2.40 7.15 0.30 0.20 0.35 0.40 0.15 0.40 -0.25 0 -0.25 0.30 0 0.65 0.20 0.30 0.45 1.05 0.50 1.60 0.10 0.50 0.45 1.15 0.80 1.35 0.30 0.20 0.40 0.40 0.15 0.40 -0.25 0 -0.15 0.35 0.20 0.75 0.35 0.40 0.45 0.75 0.25 0.75 -0.20 0 -0.10 0.30 0.20 0.65 0.30 0.40 0.40 0.85 0.20 1 -0.15 0.20 -0.05 0.35 0.30 0.35 0.35 0 0.45 0.25 0.30 0.50 -0.15 0.30 -0.05 0.50 0.20 0.50 0.30 0 0.50 0.15 0.45 0.40 -0.05 0.20 0.15 0.85 0.50 1.40 0.30 0.60 0.40 1.20 0.25 1.40 -0.15 0.15 -0.05 0.30 0.30 0.30 0.35 0 0.50 0.20 0.30 0.45 -0.15 0.25 -0.05 0.60 0.25 0.80 0.25 0.15 0.50 0.80 0.50 1.45 0 0.60 0.15 1.30 0.35 1.50 0.20 0.15 0.40 0.60 0.45 0.95 0.10 0.60 1.70 4.45 4.30 10.35 0.60 1.25 1.15 2.35 1.35 2.50 0.70 0.55 2 3.40 1.70 3.70 -0.15 0.15 -0.05 0.30 0.30 0.30 0.35 0 0.45 0.25 0.30 0.50 -0.15 0.30 -0.05 0.50 0.25 0.50 0.30 0 0.40 0.25 0.25 0.50 -0.15 0.30 -0.05 0.50 0.25 0.50 0.30 0 0.40 0.25 0.25 0.50 -0.15 0.30 -0.05 0.50 0.25 0.50 0.30 0 0.45 0.20 0.30 0.45 -0.15 0.25 0.05 0.70 0.45 1.05 0.40 0.35 0.75 0.95 0.75 1.30 0 0.40 0.25 0.70 0.55 0.70 0.25 0 0.40 0.20 0.20 0.45 -0.15 0.25 0.05 0.75 0.40 1.15 0.35 0.35 1 1.40 1.40 2.30 0.35 0.85 0.90 1.60 1.10 1.60 0.25 0 0.30 0.20 0.15 0.45 -0.20 0.25 -0.15 0.55 0.10 0.65 0.40 0.15 3.60 5.20 3.60 5.70 0 0.10 0.25 0.50 0.50 0.85 0.70 0.80 11.10 15.65 11.75 16.70 0.30 0.50 0.80 1.20 1.20 1.60 0.35 0.40 2.45 3 4.60 5.75 7.75 10 25.60 27.85 37.40 37.45 4.35 3.60 9.20 7.15 14 10.30 6.25 4.15 12.05 7.85 17.30 11.05 3.30 2 6.55 4 7.25 4.50 1.75 1.15 17.75 8.85 22 10.55 0.70 0.30 2.30 1.05 3.65 1.75 1.30 0.65 2.60 1.20 2.95 1.20 0.30 0 2 0.70 3.75 1.50 1.75 0.85 3.65 1.60 4.30 1.70 0.60 0.15 1.15 0.25 1.25 0.35 0.05 0.05 0.25 0.10 0.50 0.20 0.20 0.05 1 0.35 1.80 0.70 0.80 0.30 1.55 0.45 1.70 0.30 0.15 -0.10 0.55 0 0.95 0.30 0.35 0.30 0.65 0.40 0.65 0.20 0 -0.20 0.35 -0.10 0.75 0.25 0.40 0.35 0.75 0.45 0.75 0.25 0 -0.20 0.30 -0.10 0.70 0.20 0.40 0.30 0.90 0.55 1.10 0.50 0.25 -0.05 0.55 0 0.70 0.05 0.15 0.05 0.65 0.15 1.15 0.30 0.45 0.10 1.25 0.30 1.75 0.40 0.45 0.15 0.85 0.25 0.85 0.30 0 0.10 1.75 0.55 2.75 0.70 0.45 0.05 1.05 0.30 1.40 0.50 0.35 0.20 0.80 0.25 0.95 0.10 0.15 -0.15 0.60 -0.05 0.95 0.20 0.30 0.30 0.80 0.50 1 0.45 0.25 -0.05 1.10 0.15 1.85 0.45 0.75 0.35 1.55 0.55 1.75 0.50 0.20 -0.05 1 0.20 1.80 0.55 0.80 0.30 2 0.65 2.75 0.70 0.75 0.10 1.60 0.30 1.90 0.50 0.35 0.20 1.60 0.45 2.80 0.55 1.25 0.10 2.50 0.35 2.80 0.50 0.30 0.20 1.25 0.40 2.15 0.50 0.90 0.10 2 0.30 2.40 0.45 2.25 0.75 12.15 2.45 18.25 3.15 12.90 1.45 43.15 1.95 43.65 0.70z"/>
  <path d="M446.50 561 c0 -2.75 1.15 -3.55 1.70 -1.25 0.40 1.65 -0.15 3.75 -1 3.75 -0.50 0 -0.70 -0.70 -0.70 -2.50z"/>
  <path d="M446.50 396.25 c0 -2.85 0.15 -3.75 0.70 -3.75 0.75 0 1.30 1.50 1.30 3.75 0 2.25 -0.55 3.75 -1.30 3.75 -0.55 0 -0.70 -0.90 -0.70 -3.75z"/>
 </g>
 <g fill="#192741">
  <path d="M371.35 661.30 c0.15 -0.20 0.30 -67.20 0.35 -148.85 l0.05 -148.45 38.65 -0.15 c34.15 -0.10 38.55 0 38.25 0.65 -0.45 1.10 -0.85 81.95 -0.40 97.25 l0.35 13 63 -0.10 62.95 -0.15 0.10 -55.60 0.10 -55.65 39.25 0.15 c36.70 0.15 39.25 0.20 39.10 1 -0.95 6.35 -1.30 284.30 -0.35 294.10 l0.35 3.30 -39.30 -0.05 -39.30 0 0.25 -55.75 0.25 -55.75 -63.15 0.05 -63.10 0.05 -0.35 2.95 c-0.15 1.60 -0.25 26.70 -0.25 55.70 l0.10 52.75 -38.60 0 c-21.20 0 -38.45 -0.20 -38.30 -0.45z"/>
 </g>
</svg>